ISO-10303-21;
HEADER;
FILE_DESCRIPTION (( 'STEP AP214' ),
    '1' );
FILE_NAME ('BarFixture.STEP',
    '2026-10-04T06:06:56',
    ( '' ),
    ( '' ),
    'SwSTEP 2.0',
    'SolidWorks 2025',
    '' );
FILE_SCHEMA (( 'AUTOMOTIVE_DESIGN' ));
ENDSEC;

DATA;
#1 = LINE ( 'NONE', #634, #727 ) ;
#2 = VECTOR ( 'NONE', #10, 1000.000000000000000 ) ;
#3 = CARTESIAN_POINT ( 'NONE',  ( 0.8656184974744866034, 2.880089510944871645, -1.479950076419572547 ) ) ;
#4 = VECTOR ( 'NONE', #573, 1000.000000000000000 ) ;
#5 = CARTESIAN_POINT ( 'NONE',  ( -2.400731066902389355, -7.106889624231496505, -1.388149546218120145 ) ) ;
#6 = ORIENTED_EDGE ( 'NONE', *, *, #579, .F. ) ;
#7 = CARTESIAN_POINT ( 'NONE',  ( 0.000000000000000000, 4.099999999999999645, 1.700000000000012168 ) ) ;
#8 = CARTESIAN_POINT ( 'NONE',  ( 1.688205909853107256, 2.480058853247411932, -0.2294064786409205914 ) ) ;
#9 = FACE_OUTER_BOUND ( 'NONE', #400, .T. ) ;
#10 = DIRECTION ( 'NONE',  ( -0.000000000000000000, -0.000000000000000000, -1.000000000000000000 ) ) ;
#11 = CARTESIAN_POINT ( 'NONE',  ( -1.450955288954255851, 7.361004353632028874, 2.915909078933396348 ) ) ;
#12 = ORIENTED_EDGE ( 'NONE', *, *, #508, .F. ) ;
#13 = CARTESIAN_POINT ( 'NONE',  ( 0.000000000000000000, -7.500000000000000000, 0.000000000000000000 ) ) ;
#14 = EDGE_CURVE ( 'NONE', #194, #182, #511, .T. ) ;
#15 = CARTESIAN_POINT ( 'NONE',  ( -7.199999999999996625, 9.001153973733043645E-16, -5.000000000000000000 ) ) ;
#16 = VECTOR ( 'NONE', #678, 1000.000000000000000 ) ;
#17 = ORIENTED_EDGE ( 'NONE', *, *, #205, .F. ) ;
#18 = ORIENTED_EDGE ( 'NONE', *, *, #146, .T. ) ;
#19 = DIRECTION ( 'NONE',  ( 0.000000000000000000, 0.000000000000000000, -1.000000000000000000 ) ) ;
#20 = CARTESIAN_POINT ( 'NONE',  ( 3.367778697655220026E-16, -7.500000000000000000, 2.749999999999999112 ) ) ;
#21 = EDGE_CURVE ( 'NONE', #173, #556, #451, .T. ) ;
#22 = ORIENTED_EDGE ( 'NONE', *, *, #172, .T. ) ;
#23 = DIRECTION ( 'NONE',  ( 0.000000000000000000, 0.000000000000000000, -1.000000000000000000 ) ) ;
#24 = CARTESIAN_POINT ( 'NONE',  ( 2.749934445789428583, -6.977668704431200020, -0.1822168910303218203 ) ) ;
#25 = CARTESIAN_POINT ( 'NONE',  ( 1.987735347335648495, 7.234033778038338802, -2.579847909654076954 ) ) ;
#26 = CARTESIAN_POINT ( 'NONE',  ( 2.745115721318941659, -1.210344771693879107, 0.1900724670959635099 ) ) ;
#27 = CARTESIAN_POINT ( 'NONE',  ( 0.1806221802246921748, -7.500000000000002665, 2.749999999999998668 ) ) ;
#28 = FACE_BOUND ( 'NONE', #266, .T. ) ;
#29 = AXIS2_PLACEMENT_3D ( 'NONE', #473, #595, #292 ) ;
#30 = CARTESIAN_POINT ( 'NONE',  ( 1.818635947515201190, -7.277353231593629346, 2.070600230065271496 ) ) ;
#31 = DIRECTION ( 'NONE',  ( -0.7071067811865526798, 0.000000000000000000, -0.7071067811865423547 ) ) ;
#32 = CARTESIAN_POINT ( 'NONE',  ( 0.000000000000000000, -7.500000000000000000, -2.749999999999999112 ) ) ;
#33 = ORIENTED_EDGE ( 'NONE', *, *, #348, .F. ) ;
#34 = EDGE_CURVE ( 'NONE', #178, #581, #624, .T. ) ;
#35 = DIRECTION ( 'NONE',  ( 1.000000000000000000, 0.000000000000000000, 0.000000000000000000 ) ) ;
#36 = ORIENTED_EDGE ( 'NONE', *, *, #205, .T. ) ;
#37 = ORIENTED_EDGE ( 'NONE', *, *, #14, .F. ) ;
#38 = ADVANCED_BREP_SHAPE_REPRESENTATION ( 'BarFixture', ( #733, #688 ), #133 ) ;
#39 = CARTESIAN_POINT ( 'NONE',  ( 0.000000000000000000, 4.099999999999999645, 0.000000000000000000 ) ) ;
#40 = CARTESIAN_POINT ( 'NONE',  ( -1.356971940976239743, 2.680780145430402328, 1.046743102507746048 ) ) ;
#41 = DIRECTION ( 'NONE',  ( 0.000000000000000000, 0.000000000000000000, 1.000000000000000000 ) ) ;
#42 = CONICAL_SURFACE ( 'NONE', #454, 7.500000000000000000, 0.7853981633974541632 ) ;
#43 = CARTESIAN_POINT ( 'NONE',  ( 1.056371896025629420, 7.427936573388171482, 3.080981566740564226 ) ) ;
#44 = COLOUR_RGB ( '',0.7921568627450980005, 0.8196078431372548767, 0.9333333333333333481 ) ;
#45 = ORIENTED_EDGE ( 'NONE', *, *, #148, .F. ) ;
#46 = EDGE_CURVE ( 'NONE', #141, #708, #618, .T. ) ;
#47 = CARTESIAN_POINT ( 'NONE',  ( -2.463662900881907980, -1.716211070419883855, 1.233314605574924006 ) ) ;
#48 = ORIENTED_EDGE ( 'NONE', *, *, #58, .T. ) ;
#49 = SHAPE_DEFINITION_REPRESENTATION ( #417, #38 ) ;
#50 = CARTESIAN_POINT ( 'NONE',  ( 1.421118005857181062E-15, -3.000000000000013323, 2.750000000000013323 ) ) ;
#51 = ORIENTED_EDGE ( 'NONE', *, *, #237, .F. ) ;
#52 = CARTESIAN_POINT ( 'NONE',  ( 1.455189163257842866, -2.628810640926429354, -2.339965962628054896 ) ) ;
#53 = DIRECTION ( 'NONE',  ( -0.000000000000000000, -1.000000000000000000, -0.000000000000000000 ) ) ;
#54 = VERTEX_POINT ( 'NONE', #471 ) ;
#55 = CIRCLE ( 'NONE', #702, 7.500000000000000000 ) ;
#56 = CARTESIAN_POINT ( 'NONE',  ( -0.7197858577920726031, -7.467526823585306062, 2.660371149378193412 ) ) ;
#57 = FACE_BOUND ( 'NONE', #612, .T. ) ;
#58 = EDGE_CURVE ( 'NONE', #556, #372, #719, .T. ) ;
#59 = CARTESIAN_POINT ( 'NONE',  ( 0.000000000000000000, 0.000000000000000000, -5.000000000000000000 ) ) ;
#60 = CARTESIAN_POINT ( 'NONE',  ( -0.2277295149419359677, 2.993409430252923276, 1.688444793562124735 ) ) ;
#61 = CARTESIAN_POINT ( 'NONE',  ( 0.7768646653609592168, -2.904124686992809679, 2.645132488043372199 ) ) ;
#62 = CARTESIAN_POINT ( 'NONE',  ( 0.000000000000000000, 0.000000000000000000, 5.000000000000000000 ) ) ;
#63 = DIRECTION ( 'NONE',  ( -0.000000000000000000, -0.000000000000000000, -1.000000000000000000 ) ) ;
#64 = DIRECTION ( 'NONE',  ( 0.000000000000000000, 0.000000000000000000, -1.000000000000000000 ) ) ;
#65 = DIRECTION ( 'NONE',  ( -1.000000000000000000, 0.000000000000000000, 0.000000000000000000 ) ) ;
#66 = CONICAL_SURFACE ( 'NONE', #571, 7.199999999999994849, 0.7853981633974554954 ) ;
#67 = CARTESIAN_POINT ( 'NONE',  ( 1.609356604951315051, 2.532290866252950856, -0.5586999342975531579 ) ) ;
#68 = CARTESIAN_POINT ( 'NONE',  ( -3.228381179786840249, 6.769765547008225859, -0.4310629649405792185 ) ) ;
#69 = CARTESIAN_POINT ( 'NONE',  ( -0.4486698602832377980, 2.968342316104434442, 1.643594204588271657 ) ) ;
#70 = DIRECTION ( 'NONE',  ( 1.000000000000000000, 0.000000000000000000, -0.000000000000000000 ) ) ;
#71 = CARTESIAN_POINT ( 'NONE',  ( -0.4281555173596643948, 7.490809760884229007, -3.228966898772172467 ) ) ;
#72 = CARTESIAN_POINT ( 'NONE',  ( 0.7197570672866082653, -7.467523315063408162, 2.660360873799553438 ) ) ;
#73 = EDGE_LOOP ( 'NONE', ( #616, #226, #36, #197 ) ) ;
#74 = CARTESIAN_POINT ( 'NONE',  ( -2.445771384972186713, 7.091719251092957421, -2.150506902010111521 ) ) ;
#75 = CARTESIAN_POINT ( 'NONE',  ( 2.750065196341461071, -6.977617173563566588, 0.1802328144022933842 ) ) ;
#76 = ADVANCED_FACE ( 'NONE', ( #408 ), #725, .T. ) ;
#77 = PLANE ( 'NONE',  #29 ) ;
#78 = AXIS2_PLACEMENT_3D ( 'NONE', #354, #23, #477 ) ;
#79 = DIRECTION ( 'NONE',  ( -0.000000000000000000, -1.000000000000000000, -0.000000000000000000 ) ) ;
#80 = LINE ( 'NONE', #241, #401 ) ;
#81 = CARTESIAN_POINT ( 'NONE',  ( 0.000000000000000000, 4.099999999999999645, 0.000000000000000000 ) ) ;
#82 = CYLINDRICAL_SURFACE ( 'NONE', #162, 3.249999999999996003 ) ;
#83 = CARTESIAN_POINT ( 'NONE',  ( 2.608385950141355547, -7.032193499752771970, 0.8895910866791879590 ) ) ;
#84 = LINE ( 'NONE', #20, #327 ) ;
#85 = EDGE_CURVE ( 'NONE', #620, #372, #212, .T. ) ;
#86 = CARTESIAN_POINT ( 'NONE',  ( 2.581694885399280714, 7.042771450471048134, 1.985346935807604352 ) ) ;
#87 = EDGE_LOOP ( 'NONE', ( #742, #386 ) ) ;
#88 = ORIENTED_EDGE ( 'NONE', *, *, #655, .F. ) ;
#89 = PRESENTATION_STYLE_ASSIGNMENT (( #346 ) ) ;
#90 = CARTESIAN_POINT ( 'NONE',  ( -0.7741790072432439551, -2.904897952046107790, 2.645981223913982383 ) ) ;
#91 = CARTESIAN_POINT ( 'NONE',  ( -3.228559476394665229, 6.769681303660816774, 0.4300484575001395915 ) ) ;
#92 = ORIENTED_EDGE ( 'NONE', *, *, #237, .T. ) ;
#93 = CARTESIAN_POINT ( 'NONE',  ( 0.4345868542692775671, 7.490342285336675232, 3.227877053766167847 ) ) ;
#94 = ADVANCED_FACE ( 'NONE', ( #505 ), #66, .T. ) ;
#95 = EDGE_LOOP ( 'NONE', ( #680, #669, #705, #88 ) ) ;
#96 = CARTESIAN_POINT ( 'NONE',  ( -1.643388173259395790, 2.509981254739201972, 0.4494292664134135751 ) ) ;
#97 = CARTESIAN_POINT ( 'NONE',  ( -2.725117126522064392, -1.254723460241991884, -0.3814956702515446829 ) ) ;
#98 = CARTESIAN_POINT ( 'NONE',  ( -0.7172211323676831451, -7.467733264629520029, -2.660945919758843647 ) ) ;
#99 = CARTESIAN_POINT ( 'NONE',  ( 0.000000000000000000, 0.000000000000000000, -4.700000000000000178 ) ) ;
#100 = ORIENTED_EDGE ( 'NONE', *, *, #34, .F. ) ;
#101 = DIRECTION ( 'NONE',  ( -0.000000000000000000, -0.000000000000000000, -1.000000000000000000 ) ) ;
#102 = CARTESIAN_POINT ( 'NONE',  ( -1.680279675392110095, -7.310929652000887735, 2.184298237815823995 ) ) ;
#103 = DIRECTION ( 'NONE',  ( -0.000000000000000000, -0.000000000000000000, 1.000000000000000000 ) ) ;
#104 = ORIENTED_EDGE ( 'NONE', *, *, #579, .T. ) ;
#105 = DIRECTION ( 'NONE',  ( -0.000000000000000000, 1.000000000000000000, -0.000000000000000000 ) ) ;
#106 = VECTOR ( 'NONE', #192, 1000.000000000000000 ) ;
#107 = CARTESIAN_POINT ( 'NONE',  ( -2.750098292347253892, -6.977604129906169739, 0.1796865502360235622 ) ) ;
#108 = UNCERTAINTY_MEASURE_WITH_UNIT (LENGTH_MEASURE( 1.000000000000000082E-05 ), #604, 'distance_accuracy_value', 'NONE');
#109 = DIRECTION ( 'NONE',  ( 1.000000000000000000, 0.000000000000000000, 0.000000000000000000 ) ) ;
#110 = ORIENTED_EDGE ( 'NONE', *, *, #508, .T. ) ;
#111 = CARTESIAN_POINT ( 'NONE',  ( 3.000000000000000444, 3.673940397442060361E-16, 5.000000000000000000 ) ) ;
#112 = CARTESIAN_POINT ( 'NONE',  ( -2.468716043128819315, -7.082438901596598946, 1.225098177806541067 ) ) ;
#113 = CARTESIAN_POINT ( 'NONE',  ( 0.000000000000000000, -3.000000000000000444, -2.749999999999999112 ) ) ;
#114 = CARTESIAN_POINT ( 'NONE',  ( 0.2277558575029300925, 2.993408504308857410, -1.688443240123701061 ) ) ;
#115 = EDGE_CURVE ( 'NONE', #318, #340, #562, .T. ) ;
#116 = LINE ( 'NONE', #342, #484 ) ;
#117 = VECTOR ( 'NONE', #159, 1000.000000000000000 ) ;
#118 = CARTESIAN_POINT ( 'NONE',  ( 0.000000000000000000, 3.000000000000000444, 1.700000000000005063 ) ) ;
#119 = ORIENTED_EDGE ( 'NONE', *, *, #255, .F. ) ;
#120 = CYLINDRICAL_SURFACE ( 'NONE', #519, 2.749999999999999112 ) ;
#121 = CARTESIAN_POINT ( 'NONE',  ( 0.000000000000000000, 0.000000000000000000, 5.000000000000000000 ) ) ;
#122 = CARTESIAN_POINT ( 'NONE',  ( -2.917294110620901826, 6.909941433525190746, 1.447936568487713682 ) ) ;
#123 = CARTESIAN_POINT ( 'NONE',  ( 2.185950832320315840, -7.175125350951796044, 1.678027801422602883 ) ) ;
#124 = CARTESIAN_POINT ( 'NONE',  ( 1.700077624212132488, 2.471788033108624827, 0.1135074105606464906 ) ) ;
#125 = ORIENTED_EDGE ( 'NONE', *, *, #370, .F. ) ;
#126 = EDGE_CURVE ( 'NONE', #611, #715, #653, .T. ) ;
#127 = CARTESIAN_POINT ( 'NONE',  ( 2.383246933878535589, -7.112042296144840847, -1.383762448746230556 ) ) ;
#128 = FACE_OUTER_BOUND ( 'NONE', #298, .T. ) ;
#129 = CIRCLE ( 'NONE', #341, 7.500000000000000000 ) ;
#130 = CARTESIAN_POINT ( 'NONE',  ( 0.000000000000000000, 0.000000000000000000, -4.700000000000000178 ) ) ;
#131 = AXIS2_PLACEMENT_3D ( 'NONE', #62, #222, #333 ) ;
#132 = CARTESIAN_POINT ( 'NONE',  ( 2.653469966181918327, -1.402295078621658808, 0.7453188908356800368 ) ) ;
#133 =( GEOMETRIC_REPRESENTATION_CONTEXT ( 3 ) GLOBAL_UNCERTAINTY_ASSIGNED_CONTEXT ( ( #224 ) ) GLOBAL_UNIT_ASSIGNED_CONTEXT ( ( #557, #675, #202 ) ) REPRESENTATION_CONTEXT ( 'NONE', 'WORKASPACE' ) );
#134 = FACE_OUTER_BOUND ( 'NONE', #674, .T. ) ;
#135 = ORIENTED_EDGE ( 'NONE', *, *, #294, .T. ) ;
#136 = CARTESIAN_POINT ( 'NONE',  ( 7.500000000000000000, 9.184850993605147944E-16, 4.699999999999999289 ) ) ;
#137 = CARTESIAN_POINT ( 'NONE',  ( 2.070304933510006773, -7.209777043961382859, -1.818826613462382724 ) ) ;
#138 = CARTESIAN_POINT ( 'NONE',  ( 1.056487006722993893, 7.427902157356297330, -3.080891476417520813 ) ) ;
#139 = EDGE_CURVE ( 'NONE', #54, #649, #290, .T. ) ;
#140 = CARTESIAN_POINT ( 'NONE',  ( 1.127356608301258500, 2.781384365617100229, 1.277069324809273709 ) ) ;
#141 = VERTEX_POINT ( 'NONE', #753 ) ;
#142 = CARTESIAN_POINT ( 'NONE',  ( -1.688346532761836771, 2.479963018365821004, 0.2284673692868121331 ) ) ;
#143 = CLOSED_SHELL ( 'NONE', ( #94, #381, #673, #424, #379, #215, #515, #739, #544, #591, #625, #310, #718, #344, #599, #533, #76 ) ) ;
#144 = CARTESIAN_POINT ( 'NONE',  ( 2.001075015615921160, 7.234916519742625951, 2.595490878735497553 ) ) ;
#145 = CARTESIAN_POINT ( 'NONE',  ( -1.356612632824873543, 2.680996330502329439, -1.047329678796460328 ) ) ;
#146 = EDGE_CURVE ( 'NONE', #318, #708, #347, .T. ) ;
#147 = CARTESIAN_POINT ( 'NONE',  ( -0.7758411073814162062, -2.904417216651936862, -2.645453560592609943 ) ) ;
#148 = EDGE_CURVE ( 'NONE', #475, #730, #235, .T. ) ;
#149 = LINE ( 'NONE', #734, #16 ) ;
#150 = ORIENTED_EDGE ( 'NONE', *, *, #263, .T. ) ;
#151 = AXIS2_PLACEMENT_3D ( 'NONE', #507, #391, #639 ) ;
#152 = CARTESIAN_POINT ( 'NONE',  ( -2.653500215599183143, -1.402241703935267703, -0.7452621112794427516 ) ) ;
#153 = AXIS2_PLACEMENT_3D ( 'NONE', #433, #608, #425 ) ;
#154 = EDGE_LOOP ( 'NONE', ( #313, #503 ) ) ;
#155 = CARTESIAN_POINT ( 'NONE',  ( -3.144028188222828035, 6.809350729336956398, -0.8504981325114766566 ) ) ;
#156 = CARTESIAN_POINT ( 'NONE',  ( 0.000000000000000000, 0.000000000000000000, -5.000000000000000000 ) ) ;
#157 = ORIENTED_EDGE ( 'NONE', *, *, #357, .T. ) ;
#158 = CARTESIAN_POINT ( 'NONE',  ( 0.000000000000000000, 0.000000000000000000, 5.000000000000000000 ) ) ;
#159 = DIRECTION ( 'NONE',  ( 0.7071067811865516806, 0.000000000000000000, 0.7071067811865434649 ) ) ;
#160 = CARTESIAN_POINT ( 'NONE',  ( 0.000000000000000000, 3.000000000000000444, 1.700000000000005063 ) ) ;
#161 = CARTESIAN_POINT ( 'NONE',  ( -0.1151133772172912434, 3.000000000000000444, -1.700000000000005285 ) ) ;
#162 = AXIS2_PLACEMENT_3D ( 'NONE', #732, #351, #249 ) ;
#163 = DIRECTION ( 'NONE',  ( 0.000000000000000000, 0.000000000000000000, -1.000000000000000000 ) ) ;
#164 = ORIENTED_EDGE ( 'NONE', *, *, #448, .F. ) ;
#165 = CARTESIAN_POINT ( 'NONE',  ( 1.350196420155894250, 2.679871939087058230, -1.038674503447686748 ) ) ;
#166 = CARTESIAN_POINT ( 'NONE',  ( 2.595716583834460245, -1.509054967722125884, -0.9235450902377113636 ) ) ;
#167 = DIRECTION ( 'NONE',  ( 0.000000000000000000, 0.000000000000000000, 1.000000000000000000 ) ) ;
#168 = DIRECTION ( 'NONE',  ( -0.000000000000000000, -0.000000000000000000, -1.000000000000000000 ) ) ;
#169 = CARTESIAN_POINT ( 'NONE',  ( 2.386200138437471363, -1.823720857394625972, -1.376866510668667720 ) ) ;
#170 = EDGE_LOOP ( 'NONE', ( #375, #523 ) ) ;
#171 = FACE_OUTER_BOUND ( 'NONE', #498, .T. ) ;
#172 = EDGE_CURVE ( 'NONE', #664, #216, #356, .T. ) ;
#173 = VERTEX_POINT ( 'NONE', #118 ) ;
#174 = CARTESIAN_POINT ( 'NONE',  ( -1.636111589271128208, 7.321606330235118421, -2.816101018258343913 ) ) ;
#175 = VERTEX_POINT ( 'NONE', #589 ) ;
#176 = DIRECTION ( 'NONE',  ( 0.000000000000000000, 0.000000000000000000, 1.000000000000000000 ) ) ;
#177 = CARTESIAN_POINT ( 'NONE',  ( -7.500000000000000000, 0.000000000000000000, 5.000000000000000000 ) ) ;
#178 = VERTEX_POINT ( 'NONE', #343 ) ;
#179 = CARTESIAN_POINT ( 'NONE',  ( -7.500000000000000000, 0.000000000000000000, -4.700000000000000178 ) ) ;
#180 = CARTESIAN_POINT ( 'NONE',  ( 0.000000000000000000, 0.000000000000000000, -5.000000000000000000 ) ) ;
#181 = EDGE_CURVE ( 'NONE', #204, #715, #695, .T. ) ;
#182 = VERTEX_POINT ( 'NONE', #704 ) ;
#183 = CARTESIAN_POINT ( 'NONE',  ( 0.7772403456680031519, -2.904098323147431771, -2.645104023134313032 ) ) ;
#184 = CARTESIAN_POINT ( 'NONE',  ( 2.081899558550506689E-16, 7.500000000000000000, -1.700000000000005063 ) ) ;
#185 = CARTESIAN_POINT ( 'NONE',  ( 2.469804991251143722, -7.082053797314088683, 1.222748081816047883 ) ) ;
#186 = CARTESIAN_POINT ( 'NONE',  ( 0.000000000000000000, 0.000000000000000000, -4.700000000000000178 ) ) ;
#187 = CARTESIAN_POINT ( 'NONE',  ( 0.000000000000000000, 4.099999999999999645, 0.000000000000000000 ) ) ;
#188 = CARTESIAN_POINT ( 'NONE',  ( 0.1833847334339406554, -7.500000000000001776, -2.749999999999999556 ) ) ;
#189 = CARTESIAN_POINT ( 'NONE',  ( 2.581968201079627878, 7.042666322286840419, -1.984942652547811770 ) ) ;
#190 = AXIS2_PLACEMENT_3D ( 'NONE', #156, #101, #311 ) ;
#191 = CARTESIAN_POINT ( 'NONE',  ( 0.2006709897644376184, -3.000000000000000888, -2.749999999999998668 ) ) ;
#192 = DIRECTION ( 'NONE',  ( -0.7071067811865516806, 8.659560562354983395E-17, 0.7071067811865434649 ) ) ;
#193 = CARTESIAN_POINT ( 'NONE',  ( 1.042097424023044949, 2.814805233620175429, 1.347570649010821908 ) ) ;
#194 = VERTEX_POINT ( 'NONE', #450 ) ;
#195 = SURFACE_STYLE_FILL_AREA ( #488 ) ;
#196 = DIRECTION ( 'NONE',  ( 1.000000000000000000, 0.000000000000000000, 0.000000000000000000 ) ) ;
#197 = ORIENTED_EDGE ( 'NONE', *, *, #272, .F. ) ;
#198 = DIRECTION ( 'NONE',  ( -0.000000000000000000, 1.000000000000000000, -0.000000000000000000 ) ) ;
#199 = CARTESIAN_POINT ( 'NONE',  ( -1.609516914279715216, 2.532187230830433400, 0.5582171228781811489 ) ) ;
#200 = EDGE_CURVE ( 'NONE', #312, #611, #227, .T. ) ;
#201 = CIRCLE ( 'NONE', #190, 7.199999999999996625 ) ;
#202 =( NAMED_UNIT ( * ) SI_UNIT ( $, .STERADIAN. ) SOLID_ANGLE_UNIT ( ) );
#203 = CARTESIAN_POINT ( 'NONE',  ( -1.453337543913008290, -2.629850131087566822, 2.341133634252888118 ) ) ;
#204 = VERTEX_POINT ( 'NONE', #522 ) ;
#205 = EDGE_CURVE ( 'NONE', #340, #141, #403, .T. ) ;
#206 = PRODUCT_CONTEXT ( 'NONE', #610, 'mechanical' ) ;
#207 = B_SPLINE_CURVE_WITH_KNOTS ( 'NONE', 3,
 ( #592, #27, #588, #72, #287, #296, #601, #654, #30, #284, #123, #404, #185, #83, #242, #234, #75, #24, #647, #481, #723, #726, #127, #478, #137, #291, #355, #531, #238, #472, #247, #468, #188, #594 ),
 .UNSPECIFIED., .F., .F.,
 ( 4, 2, 2, 2, 2, 2, 2, 2, 2, 2, 2, 2, 2, 2, 2, 2, 4 ),
 ( 0.008674104351380737196, 0.009216116689126790246, 0.009758129026872843295, 0.01030014136461889634, 0.01084215370236495113, 0.01138416604011100244, 0.01192617837785705549, 0.01246819071560310854, 0.01301020305334916159, 0.01355221539109521464, 0.01409422772884126769, 0.01463624006658732074, 0.01517825240433337379, 0.01572026474207943031, 0.01626227707982548162, 0.01680428941757153294, 0.01734630175531758772 ),
 .UNSPECIFIED. ) ;
#208 = CARTESIAN_POINT ( 'NONE',  ( 2.448758434200643208, 7.090709534127945801, 2.147248392911622616 ) ) ;
#209 = ORIENTED_EDGE ( 'NONE', *, *, #370, .T. ) ;
#210 = CARTESIAN_POINT ( 'NONE',  ( -2.098894248797080753, -2.149099046725146511, 1.784733407924077087 ) ) ;
#211 = EDGE_LOOP ( 'NONE', ( #22, #259 ) ) ;
#212 = CIRCLE ( 'NONE', #440, 1.700000000000012168 ) ;
#213 = APPLICATION_PROTOCOL_DEFINITION ( 'draft international standard', 'automotive_design', 1998, #264 ) ;
#214 = CARTESIAN_POINT ( 'NONE',  ( -2.468755923478007652, -1.708908573619088545, -1.223314497241765109 ) ) ;
#215 = ADVANCED_FACE ( 'NONE', ( #514, #465 ), #643, .F. ) ;
#216 = VERTEX_POINT ( 'NONE', #15 ) ;
#217 = CARTESIAN_POINT ( 'NONE',  ( 1.867612803954944889, -2.352866035388353261, -2.025494905595642603 ) ) ;
#218 = DIRECTION ( 'NONE',  ( -1.000000000000000000, 0.000000000000000000, 0.000000000000000000 ) ) ;
#219 = DIRECTION ( 'NONE',  ( 0.000000000000000000, 0.000000000000000000, 1.000000000000000000 ) ) ;
#220 = CARTESIAN_POINT ( 'NONE',  ( 0.4487534242202139700, 2.968330771417854841, -1.643573445270076094 ) ) ;
#221 = AXIS2_PLACEMENT_3D ( 'NONE', #637, #281, #398 ) ;
#222 = DIRECTION ( 'NONE',  ( 0.000000000000000000, 0.000000000000000000, 1.000000000000000000 ) ) ;
#223 = CARTESIAN_POINT ( 'NONE',  ( 1.050481281923452137, 2.815038864781966410, -1.354075382645100190 ) ) ;
#224 = UNCERTAINTY_MEASURE_WITH_UNIT (LENGTH_MEASURE( 1.000000000000000082E-05 ), #557, 'distance_accuracy_value', 'NONE');
#225 = FACE_BOUND ( 'NONE', #435, .T. ) ;
#226 = ORIENTED_EDGE ( 'NONE', *, *, #115, .T. ) ;
#227 = LINE ( 'NONE', #526, #2 ) ;
#228 = ORIENTED_EDGE ( 'NONE', *, *, #172, .F. ) ;
#229 = DIRECTION ( 'NONE',  ( -0.000000000000000000, -0.000000000000000000, -1.000000000000000000 ) ) ;
#230 = EDGE_LOOP ( 'NONE', ( #248, #157, #282, #546 ) ) ;
#231 = DIRECTION ( 'NONE',  ( -0.000000000000000000, -0.000000000000000000, -1.000000000000000000 ) ) ;
#232 = ORIENTED_EDGE ( 'NONE', *, *, #390, .F. ) ;
#233 = DIRECTION ( 'NONE',  ( 0.000000000000000000, 0.000000000000000000, 1.000000000000000000 ) ) ;
#234 = CARTESIAN_POINT ( 'NONE',  ( 2.731721967673347962, -6.984922430101956792, 0.3643072408248504979 ) ) ;
#235 = CIRCLE ( 'NONE', #221, 7.199999999999994849 ) ;
#236 = CARTESIAN_POINT ( 'NONE',  ( 3.000000000000000444, 3.673940397442060361E-16, 5.000000000000000000 ) ) ;
#237 = EDGE_CURVE ( 'NONE', #664, #611, #274, .T. ) ;
#238 = CARTESIAN_POINT ( 'NONE',  ( 1.224214891832603014, -7.401330618129733807, -2.469100893225349758 ) ) ;
#239 = FACE_OUTER_BOUND ( 'NONE', #170, .T. ) ;
#240 = DIRECTION ( 'NONE',  ( 0.000000000000000000, 0.000000000000000000, 1.000000000000000000 ) ) ;
#241 = CARTESIAN_POINT ( 'NONE',  ( -7.199999999999994849, 0.000000000000000000, 5.000000000000000000 ) ) ;
#242 = CARTESIAN_POINT ( 'NONE',  ( 2.660747326559337989, -7.012265677184363888, 0.7179473090651592448 ) ) ;
#243 = CARTESIAN_POINT ( 'NONE',  ( 3.143216610757782359, 6.809727290989470383, -0.8535802155998489793 ) ) ;
#244 = AXIS2_PLACEMENT_3D ( 'NONE', #121, #168, #395 ) ;
#245 = AXIS2_PLACEMENT_3D ( 'NONE', #651, #19, #350 ) ;
#246 = MECHANICAL_DESIGN_GEOMETRIC_PRESENTATION_REPRESENTATION (  '', ( #656 ), #414 ) ;
#247 = CARTESIAN_POINT ( 'NONE',  ( 0.7159707655284192063, -7.467840511925291302, -2.661245081524248324 ) ) ;
#248 = ORIENTED_EDGE ( 'NONE', *, *, #411, .F. ) ;
#249 = DIRECTION ( 'NONE',  ( 0.000000000000000000, 0.000000000000000000, 1.000000000000000000 ) ) ;
#250 = CARTESIAN_POINT ( 'NONE',  ( 1.457911103393539909, -2.627368035453635287, 2.338354463238372816 ) ) ;
#251 = CARTESIAN_POINT ( 'NONE',  ( -1.297975440778779133, -2.710833981759918743, -2.431501688451187082 ) ) ;
#252 = CARTESIAN_POINT ( 'NONE',  ( -1.700032298009920506, 2.471819206023387672, -0.1146192618074450553 ) ) ;
#253 = CARTESIAN_POINT ( 'NONE',  ( -0.1834250582826937037, -7.500000000000000000, -2.749999999999998668 ) ) ;
#254 = CARTESIAN_POINT ( 'NONE',  ( -1.456868405937833622, -2.627952971349188260, -2.339011412965111170 ) ) ;
#255 = EDGE_CURVE ( 'NONE', #372, #620, #583, .T. ) ;
#256 = CARTESIAN_POINT ( 'NONE',  ( -1.609915743223492735, 2.531937418349825997, -0.5571656349797431407 ) ) ;
#257 = CIRCLE ( 'NONE', #572, 7.199999999999994849 ) ;
#258 = CARTESIAN_POINT ( 'NONE',  ( 0.8530047698171563386, 7.454292464618990977, 3.143316540026313444 ) ) ;
#259 = ORIENTED_EDGE ( 'NONE', *, *, #390, .T. ) ;
#260 = ORIENTED_EDGE ( 'NONE', *, *, #85, .T. ) ;
#261 = CARTESIAN_POINT ( 'NONE',  ( -0.9562797358217060006, -2.849349669138685037, 2.585026540897563230 ) ) ;
#262 = DIRECTION ( 'NONE',  ( -1.000000000000000000, 0.000000000000000000, 0.000000000000000000 ) ) ;
#263 = EDGE_CURVE ( 'NONE', #556, #173, #362, .T. ) ;
#264 = APPLICATION_CONTEXT ( 'automotive_design' ) ;
#265 = CYLINDRICAL_SURFACE ( 'NONE', #530, 3.249999999999996003 ) ;
#266 = EDGE_LOOP ( 'NONE', ( #439, #119 ) ) ;
#267 = CIRCLE ( 'NONE', #685, 3.000000000000000444 ) ;
#268 = PRODUCT_RELATED_PRODUCT_CATEGORY ( 'part', '', ( #535 ) ) ;
#269 = DIRECTION ( 'NONE',  ( -0.000000000000000000, 1.000000000000000000, -0.000000000000000000 ) ) ;
#270 = LINE ( 'NONE', #394, #4 ) ;
#271 = CARTESIAN_POINT ( 'NONE',  ( 0.1148741645072419854, 3.000000000000000888, -1.700000000000005951 ) ) ;
#272 = EDGE_CURVE ( 'NONE', #708, #141, #267, .T. ) ;
#273 = DIRECTION ( 'NONE',  ( 0.000000000000000000, 0.000000000000000000, 1.000000000000000000 ) ) ;
#274 = LINE ( 'NONE', #447, #117 ) ;
#275 = ORIENTED_EDGE ( 'NONE', *, *, #518, .T. ) ;
#276 = FACE_OUTER_BOUND ( 'NONE', #694, .T. ) ;
#277 = VECTOR ( 'NONE', #577, 1000.000000000000000 ) ;
#278 = CARTESIAN_POINT ( 'NONE',  ( 1.643229677184094406, 2.510085125579463838, -0.4499586142378416698 ) ) ;
#279 = CARTESIAN_POINT ( 'NONE',  ( 0.000000000000000000, 0.000000000000000000, 5.000000000000000000 ) ) ;
#280 = ORIENTED_EDGE ( 'NONE', *, *, #334, .F. ) ;
#281 = DIRECTION ( 'NONE',  ( 0.000000000000000000, 0.000000000000000000, 1.000000000000000000 ) ) ;
#282 = ORIENTED_EDGE ( 'NONE', *, *, #139, .F. ) ;
#283 = EDGE_CURVE ( 'NONE', #730, #204, #80, .T. ) ;
#284 = CARTESIAN_POINT ( 'NONE',  ( 2.072738281198707178, -7.209095836832395854, 1.816198788677688025 ) ) ;
#285 = CARTESIAN_POINT ( 'NONE',  ( -1.056951515962385457, 7.427789590504104034, -3.080602066408590911 ) ) ;
#286 = EDGE_LOOP ( 'NONE', ( #209, #135, #37, #164 ) ) ;
#287 = CARTESIAN_POINT ( 'NONE',  ( 0.8918224338725226907, -7.448678450412717922, 2.607593593345397309 ) ) ;
#288 = CARTESIAN_POINT ( 'NONE',  ( 0.8612075394249046889, 2.875311655874662087, 1.469773883721102958 ) ) ;
#289 = CARTESIAN_POINT ( 'NONE',  ( -3.080184470422205223, 6.838885813550438009, 1.058106262337223491 ) ) ;
#290 = B_SPLINE_CURVE_WITH_KNOTS ( 'NONE', 3,
 ( #603, #301, #509, #353, #527, #11, #645, #349, #590, #615, #679, #378, #122, #289, #474, #91, #307, #374, #68, #155, #713, #737, #709, #574, #74, #712, #387, #174, #586, #285, #335, #71, #461, #640 ),
 .UNSPECIFIED., .F., .F.,
 ( 4, 2, 2, 2, 2, 2, 2, 2, 2, 2, 2, 2, 2, 2, 2, 2, 4 ),
 ( 0.000000000000000000, 0.0006431362613674064402, 0.001286272522734812880, 0.001929408784102219212, 0.002572545045469625327, 0.003215681306837031225, 0.003858817568204437123, 0.004501953829571843889, 0.005145090090939250654, 0.005788226352306656552, 0.006431362613674063318, 0.007074498875041469216, 0.007717635136408874247, 0.008360771397776280145, 0.009003907659143686043, 0.009647043920511091941, 0.01029018018187849610 ),
 .UNSPECIFIED. ) ;
#291 = CARTESIAN_POINT ( 'NONE',  ( 1.818098902795058702, -7.277469609761610947, -2.070944023195778971 ) ) ;
#292 = DIRECTION ( 'NONE',  ( 0.000000000000000000, -0.000000000000000000, -1.000000000000000000 ) ) ;
#293 = CARTESIAN_POINT ( 'NONE',  ( -0.5572647021029766279, 2.949670944548184348, -1.609936847783341340 ) ) ;
#294 = EDGE_CURVE ( 'NONE', #178, #182, #84, .T. ) ;
#295 = CARTESIAN_POINT ( 'NONE',  ( 2.710226979910940415, -1.287052176334410714, 0.4750215731747889913 ) ) ;
#296 = CARTESIAN_POINT ( 'NONE',  ( 1.224073119891552874, -7.401337913401881963, 2.469116562411185711 ) ) ;
#297 = CARTESIAN_POINT ( 'NONE',  ( 2.151379937034092471, 7.186519267774118092, -2.445103771034954132 ) ) ;
#298 = EDGE_LOOP ( 'NONE', ( #587, #554, #690, #33 ) ) ;
#299 = FILL_AREA_STYLE_COLOUR ( '', #44 ) ;
#300 = CARTESIAN_POINT ( 'NONE',  ( 3.081269795891731889, 6.838400025199330656, 1.055124967882960174 ) ) ;
#301 = CARTESIAN_POINT ( 'NONE',  ( -0.2176477659985016633, 7.499999999999999112, 3.249999999999996003 ) ) ;
#302 = CIRCLE ( 'NONE', #621, 3.249999999999996003 ) ;
#303 = CARTESIAN_POINT ( 'NONE',  ( 1.743799204038808393, -2.446984249053370863, 2.133675401071731592 ) ) ;
#304 = ORIENTED_EDGE ( 'NONE', *, *, #655, .T. ) ;
#305 =( NAMED_UNIT ( * ) SI_UNIT ( $, .STERADIAN. ) SOLID_ANGLE_UNIT ( ) );
#306 = CARTESIAN_POINT ( 'NONE',  ( 1.643970084187715397, 2.509598562937428223, 0.4473251434426331885 ) ) ;
#307 = CARTESIAN_POINT ( 'NONE',  ( -3.249849601965397738, 6.759325232015685359, 0.2173493966468788008 ) ) ;
#308 = ORIENTED_EDGE ( 'NONE', *, *, #399, .T. ) ;
#309 = CARTESIAN_POINT ( 'NONE',  ( 0.9606916683973043547, -2.847887065475982471, 2.583417123067762500 ) ) ;
#310 = ADVANCED_FACE ( 'NONE', ( #128 ), #82, .F. ) ;
#311 = DIRECTION ( 'NONE',  ( 1.000000000000000000, 0.000000000000000000, 0.000000000000000000 ) ) ;
#312 = VERTEX_POINT ( 'NONE', #136 ) ;
#313 = ORIENTED_EDGE ( 'NONE', *, *, #21, .F. ) ;
#314 = APPLICATION_PROTOCOL_DEFINITION ( 'draft international standard', 'automotive_design', 1998, #610 ) ;
#315 = CARTESIAN_POINT ( 'NONE',  ( -2.749268077889216233, -1.200636592540055947, 0.2076329251500994566 ) ) ;
#316 = CARTESIAN_POINT ( 'NONE',  ( -1.643665307598105585, 2.509799011921533651, -0.4484270771903198782 ) ) ;
#317 = AXIS2_PLACEMENT_3D ( 'NONE', #59, #582, #578 ) ;
#318 = VERTEX_POINT ( 'NONE', #236 ) ;
#319 = CIRCLE ( 'NONE', #728, 3.249999999999996003 ) ;
#320 = CARTESIAN_POINT ( 'NONE',  ( -0.9595176772067095516, -2.848277891754427138, -2.583847234829040218 ) ) ;
#321 = CARTESIAN_POINT ( 'NONE',  ( -0.1150505899301953877, 3.000000000000000444, 1.700000000000005285 ) ) ;
#322 = DIRECTION ( 'NONE',  ( -0.000000000000000000, -0.000000000000000000, 1.000000000000000000 ) ) ;
#323 = ORIENTED_EDGE ( 'NONE', *, *, #14, .T. ) ;
#324 = CARTESIAN_POINT ( 'NONE',  ( -2.660792701741723221, -7.012248615295677112, 0.7178432311097170393 ) ) ;
#325 = DIRECTION ( 'NONE',  ( 0.000000000000000000, 0.000000000000000000, -1.000000000000000000 ) ) ;
#326 = CARTESIAN_POINT ( 'NONE',  ( -1.222457301029167720, -7.401589277486027463, 2.469861114971786176 ) ) ;
#327 = VECTOR ( 'NONE', #724, 1000.000000000000000 ) ;
#328 = AXIS2_PLACEMENT_3D ( 'NONE', #99, #322, #689 ) ;
#329 = CIRCLE ( 'NONE', #131, 3.000000000000000444 ) ;
#330 = PLANE ( 'NONE',  #442 ) ;
#331 = DIRECTION ( 'NONE',  ( 0.000000000000000000, 0.000000000000000000, 1.000000000000000000 ) ) ;
#332 = CARTESIAN_POINT ( 'NONE',  ( -2.607163245247404504, -7.032641556291698848, -0.8928561010571521850 ) ) ;
#333 = DIRECTION ( 'NONE',  ( 1.000000000000000000, 0.000000000000000000, 0.000000000000000000 ) ) ;
#334 = EDGE_CURVE ( 'NONE', #715, #611, #129, .T. ) ;
#335 = CARTESIAN_POINT ( 'NONE',  ( -0.8534343707745415397, 7.454340869291170790, -3.143436679049311344 ) ) ;
#336 = CARTESIAN_POINT ( 'NONE',  ( -2.185066155458309733, -7.175398951740935338, 1.679220678462702621 ) ) ;
#337 = B_SPLINE_CURVE_WITH_KNOTS ( 'NONE', 3,
 ( #490, #561, #382, #147, #320, #251, #254, #434, #684, #628, #426, #497, #214, #377, #152, #614, #97, #566, #741, #315, #738, #565, #502, #47, #668, #745, #210, #749, #371, #203, #380, #261, #90, #676, #558, #50 ),
 .UNSPECIFIED., .F., .F.,
 ( 4, 2, 2, 2, 2, 2, 2, 2, 2, 2, 2, 2, 2, 2, 2, 2, 2, 4 ),
 ( 0.000000000000000000, 0.0005914956946023474695, 0.001182991389204694939, 0.001774487083807042625, 0.002365982778409389878, 0.002957478473011738215, 0.003548974167614085684, 0.004140469862216433587, 0.004436217709517607105, 0.004731965556818779756, 0.005323461251421127659, 0.005914956946023474695, 0.006506452640625822598, 0.007097948335228170501, 0.007689444029830516669, 0.008280939724432861970, 0.008872435419035209006, 0.009463931113637556042 ),
 .UNSPECIFIED. ) ;
#338 = CARTESIAN_POINT ( 'NONE',  ( 0.000000000000000000, 7.500000000000000000, 0.000000000000000000 ) ) ;
#339 = CARTESIAN_POINT ( 'NONE',  ( 1.523634704674291296, 2.584775231992257893, -0.7620443459514675277 ) ) ;
#340 = VERTEX_POINT ( 'NONE', #657 ) ;
#341 = AXIS2_PLACEMENT_3D ( 'NONE', #186, #418, #423 ) ;
#342 = CARTESIAN_POINT ( 'NONE',  ( 0.000000000000000000, 7.500000000000000000, 3.249999999999996003 ) ) ;
#343 = CARTESIAN_POINT ( 'NONE',  ( 1.421118005857181062E-15, -3.000000000000013323, 2.750000000000013323 ) ) ;
#344 = ADVANCED_FACE ( 'NONE', ( #28, #239 ), #77, .F. ) ;
#345 = ORIENTED_EDGE ( 'NONE', *, *, #334, .T. ) ;
#346 = SURFACE_STYLE_USAGE ( .BOTH. , #528 ) ;
#347 = LINE ( 'NONE', #111, #605 ) ;
#348 = EDGE_CURVE ( 'NONE', #649, #54, #619, .T. ) ;
#349 = CARTESIAN_POINT ( 'NONE',  ( -1.988074997048614456, 7.233970833095514585, 2.579699523950520934 ) ) ;
#350 = DIRECTION ( 'NONE',  ( 1.000000000000000000, 0.000000000000000000, 0.000000000000000000 ) ) ;
#351 = DIRECTION ( 'NONE',  ( -0.000000000000000000, 1.000000000000000000, -0.000000000000000000 ) ) ;
#352 = CARTESIAN_POINT ( 'NONE',  ( -0.5579559915633245382, 2.949533477609309173, 1.609684216384640765 ) ) ;
#353 = CARTESIAN_POINT ( 'NONE',  ( -0.8503852868198835679, 7.454603013519614407, 3.144051536072249409 ) ) ;
#354 = CARTESIAN_POINT ( 'NONE',  ( 0.000000000000000000, 0.000000000000000000, 5.000000000000000000 ) ) ;
#355 = CARTESIAN_POINT ( 'NONE',  ( 1.677822499292898062, -7.311485869535564674, -2.186140638350520859 ) ) ;
#356 = CIRCLE ( 'NONE', #317, 7.199999999999996625 ) ;
#357 = EDGE_CURVE ( 'NONE', #175, #649, #149, .T. ) ;
#358 = CARTESIAN_POINT ( 'NONE',  ( 0.4561134524374913513, 2.972624940826094520, 1.652846896070929716 ) ) ;
#359 = PRODUCT_DEFINITION_FORMATION_WITH_SPECIFIED_SOURCE ( 'ANY', '', #535, .NOT_KNOWN. ) ;
#360 = DIRECTION ( 'NONE',  ( -0.000000000000000000, 1.000000000000000000, -0.000000000000000000 ) ) ;
#361 = CARTESIAN_POINT ( 'NONE',  ( 1.450344788339552382, 7.361140893201892688, -2.916257375433955357 ) ) ;
#362 = B_SPLINE_CURVE_WITH_KNOTS ( 'NONE', 3,
 ( #517, #271, #114, #220, #392, #3, #223, #699, #165, #635, #339, #67, #278, #8, #405, #124, #593, #306, #597, #489, #648, #140, #193, #288, #410, #358, #553, #532 ),
 .UNSPECIFIED., .F., .F.,
 ( 4, 2, 2, 2, 2, 2, 2, 2, 2, 2, 2, 2, 2, 4 ),
 ( 0.005436690794130217413, 0.005775777857552609820, 0.006114864920975002227, 0.006793039047819787041, 0.007132126111242179448, 0.007471213174664570987, 0.007810300238086963394, 0.008149387301509354933, 0.008488474364931747340, 0.008827561428354139747, 0.009505735555198922826, 0.009844822618621316968, 0.01018390968204370764, 0.01086208380888849072 ),
 .UNSPECIFIED. ) ;
#363 = CARTESIAN_POINT ( 'NONE',  ( 0.000000000000000000, -3.000000000000000444, -2.749999999999999112 ) ) ;
#364 = PLANE ( 'NONE',  #153 ) ;
#365 = CARTESIAN_POINT ( 'NONE',  ( 3.229090611571606484, 6.769430252294452721, 0.4270035463747694493 ) ) ;
#366 = ORIENTED_EDGE ( 'NONE', *, *, #448, .T. ) ;
#367 = CARTESIAN_POINT ( 'NONE',  ( 2.917762251192378198, 6.909745661527932903, -1.447078328000245051 ) ) ;
#368 = ORIENTED_EDGE ( 'NONE', *, *, #524, .T. ) ;
#369 = CARTESIAN_POINT ( 'NONE',  ( -1.699967567566403881, 2.471863724149320429, 0.1155753376657015080 ) ) ;
#370 = EDGE_CURVE ( 'NONE', #581, #178, #337, .T. ) ;
#371 = CARTESIAN_POINT ( 'NONE',  ( -1.738249682129758389, -2.450875307130941039, 2.138126458503571747 ) ) ;
#372 = VERTEX_POINT ( 'NONE', #436 ) ;
#373 = CARTESIAN_POINT ( 'NONE',  ( 0.000000000000000000, 0.000000000000000000, 4.699999999999999289 ) ) ;
#374 = CARTESIAN_POINT ( 'NONE',  ( -3.250148825574947775, 6.759181358653747473, -0.2128281166368760080 ) ) ;
#375 = ORIENTED_EDGE ( 'NONE', *, *, #722, .T. ) ;
#376 = CARTESIAN_POINT ( 'NONE',  ( -1.481166686641096408, 2.610787759224677096, 0.8629886794692859242 ) ) ;
#377 = CARTESIAN_POINT ( 'NONE',  ( -2.600346237048719811, -1.501107514524906428, -0.9107434415554060969 ) ) ;
#378 = CARTESIAN_POINT ( 'NONE',  ( -2.817773668813157606, 6.951700782649766097, 1.633268147197406206 ) ) ;
#379 = ADVANCED_FACE ( 'NONE', ( #444 ), #265, .F. ) ;
#380 = CARTESIAN_POINT ( 'NONE',  ( -1.294414426350815273, -2.712518343351590921, 2.433377168287509384 ) ) ;
#381 = ADVANCED_FACE ( 'NONE', ( #622 ), #633, .T. ) ;
#382 = CARTESIAN_POINT ( 'NONE',  ( -0.3956485299011005541, -2.980105876151735167, -2.728335794205330345 ) ) ;
#383 = ORIENTED_EDGE ( 'NONE', *, *, #686, .F. ) ;
#384 = CARTESIAN_POINT ( 'NONE',  ( 1.421118005857181062E-15, -3.000000000000013323, 2.750000000000013323 ) ) ;
#385 = FACE_OUTER_BOUND ( 'NONE', #494, .T. ) ;
#386 = ORIENTED_EDGE ( 'NONE', *, *, #272, .T. ) ;
#387 = CARTESIAN_POINT ( 'NONE',  ( -1.987493970187409920, 7.234130777498767095, -2.580146080370578687 ) ) ;
#388 = CARTESIAN_POINT ( 'NONE',  ( -2.196783501232958180, -7.175778722637694784, -1.692036233896007102 ) ) ;
#389 = CARTESIAN_POINT ( 'NONE',  ( 2.099833216514114920, -2.148175185780838881, -1.783622062241420281 ) ) ;
#390 = EDGE_CURVE ( 'NONE', #216, #664, #201, .T. ) ;
#391 = DIRECTION ( 'NONE',  ( -0.000000000000000000, -0.000000000000000000, -1.000000000000000000 ) ) ;
#392 = CARTESIAN_POINT ( 'NONE',  ( 0.5579618479680270582, 2.949530694834056277, -1.609678688179162931 ) ) ;
#393 = CARTESIAN_POINT ( 'NONE',  ( 0.000000000000000000, 0.000000000000000000, 5.000000000000000000 ) ) ;
#394 = CARTESIAN_POINT ( 'NONE',  ( 0.000000000000000000, 7.500000000000000000, 1.700000000000005063 ) ) ;
#395 = DIRECTION ( 'NONE',  ( -1.000000000000000000, 0.000000000000000000, 0.000000000000000000 ) ) ;
#396 = CARTESIAN_POINT ( 'NONE',  ( -2.749900891582315765, -6.977681928672996747, -0.1826826767424561404 ) ) ;
#397 = CARTESIAN_POINT ( 'NONE',  ( 0.000000000000000000, 0.000000000000000000, 5.000000000000000000 ) ) ;
#398 = DIRECTION ( 'NONE',  ( 1.000000000000000000, 0.000000000000000000, 0.000000000000000000 ) ) ;
#399 = EDGE_CURVE ( 'NONE', #204, #312, #55, .T. ) ;
#400 = EDGE_LOOP ( 'NONE', ( #458, #48, #661, #6 ) ) ;
#401 = VECTOR ( 'NONE', #31, 1000.000000000000000 ) ;
#402 = FACE_BOUND ( 'NONE', #154, .T. ) ;
#403 = LINE ( 'NONE', #529, #482 ) ;
#404 = CARTESIAN_POINT ( 'NONE',  ( 2.383960502342282073, -7.111788605299301125, 1.382349690541795129 ) ) ;
#405 = CARTESIAN_POINT ( 'NONE',  ( 1.699921588777681514, 2.471895345878003969, -0.1158207779567901469 ) ) ;
#406 = CARTESIAN_POINT ( 'NONE',  ( 2.464109509588383595, -1.715562824252193641, -1.232414070859108701 ) ) ;
#407 = ORIENTED_EDGE ( 'NONE', *, *, #58, .F. ) ;
#408 = FACE_OUTER_BOUND ( 'NONE', #95, .T. ) ;
#409 = CARTESIAN_POINT ( 'NONE',  ( 3.980051605175460181E-16, 7.500000000000000000, -3.249999999999996003 ) ) ;
#410 = CARTESIAN_POINT ( 'NONE',  ( 0.7648733479943801150, 2.902775119020901684, 1.522318740397134773 ) ) ;
#411 = EDGE_CURVE ( 'NONE', #175, #567, #302, .T. ) ;
#412 = LINE ( 'NONE', #720, #106 ) ;
#413 = CARTESIAN_POINT ( 'NONE',  ( 2.815844386805031352, 6.952462089631141318, -1.636330502859526304 ) ) ;
#414 =( GEOMETRIC_REPRESENTATION_CONTEXT ( 3 ) GLOBAL_UNCERTAINTY_ASSIGNED_CONTEXT ( ( #108 ) ) GLOBAL_UNIT_ASSIGNED_CONTEXT ( ( #604, #552, #305 ) ) REPRESENTATION_CONTEXT ( 'NONE', 'WORKASPACE' ) );
#415 = EDGE_LOOP ( 'NONE', ( #12, #513 ) ) ;
#416 = CYLINDRICAL_SURFACE ( 'NONE', #564, 1.700000000000005063 ) ;
#417 = PRODUCT_DEFINITION_SHAPE ( 'NONE', 'NONE',  #429 ) ;
#418 = DIRECTION ( 'NONE',  ( -0.000000000000000000, -0.000000000000000000, 1.000000000000000000 ) ) ;
#419 = CARTESIAN_POINT ( 'NONE',  ( 2.209908442812012375, -2.033767678226062525, 1.645029573473374196 ) ) ;
#420 = CARTESIAN_POINT ( 'NONE',  ( -0.3634809173623416712, -7.493285520189557403, -2.731834724742594922 ) ) ;
#421 = ORIENTED_EDGE ( 'NONE', *, *, #399, .F. ) ;
#422 = FACE_OUTER_BOUND ( 'NONE', #286, .T. ) ;
#423 = DIRECTION ( 'NONE',  ( 1.000000000000000000, 0.000000000000000000, 0.000000000000000000 ) ) ;
#424 = ADVANCED_FACE ( 'NONE', ( #9 ), #460, .F. ) ;
#425 = DIRECTION ( 'NONE',  ( 1.000000000000000000, 0.000000000000000000, -0.000000000000000000 ) ) ;
#426 = CARTESIAN_POINT ( 'NONE',  ( -2.209589143047260507, -2.034120769560048281, -1.645467315035365141 ) ) ;
#427 = ORIENTED_EDGE ( 'NONE', *, *, #126, .T. ) ;
#428 = CARTESIAN_POINT ( 'NONE',  ( -1.688502038621956247, 2.479856364633520549, -0.2273397293227142346 ) ) ;
#429 = PRODUCT_DEFINITION ( 'UNKNOWN', '', #359, #630 ) ;
#430 = AXIS2_PLACEMENT_3D ( 'NONE', #397, #636, #65 ) ;
#431 = CARTESIAN_POINT ( 'NONE',  ( 2.468854590895709133, -1.708756674099628059, 1.223091314926382678 ) ) ;
#432 = CARTESIAN_POINT ( 'NONE',  ( -0.8927822610083633315, -7.448565590218348298, -2.607273992958079045 ) ) ;
#433 = CARTESIAN_POINT ( 'NONE',  ( 0.000000000000000000, 0.000000000000000000, 5.000000000000000000 ) ) ;
#434 = CARTESIAN_POINT ( 'NONE',  ( -1.742996172234778207, -2.447563424186958159, -2.134339308960925496 ) ) ;
#435 = EDGE_LOOP ( 'NONE', ( #323, #666 ) ) ;
#436 = CARTESIAN_POINT ( 'NONE',  ( 2.081899558550515317E-16, 4.099999999999999645, -1.700000000000012168 ) ) ;
#437 = ORIENTED_EDGE ( 'NONE', *, *, #294, .F. ) ;
#438 = CARTESIAN_POINT ( 'NONE',  ( 0.000000000000000000, 7.500000000000000000, 0.000000000000000000 ) ) ;
#439 = ORIENTED_EDGE ( 'NONE', *, *, #85, .F. ) ;
#440 = AXIS2_PLACEMENT_3D ( 'NONE', #187, #496, #744 ) ;
#441 = DIRECTION ( 'NONE',  ( 0.000000000000000000, 0.000000000000000000, 1.000000000000000000 ) ) ;
#442 = AXIS2_PLACEMENT_3D ( 'NONE', #642, #167, #70 ) ;
#443 = CARTESIAN_POINT ( 'NONE',  ( 2.204495216866996454, -2.039634698956097836, -1.652244935743623522 ) ) ;
#444 = FACE_OUTER_BOUND ( 'NONE', #230, .T. ) ;
#445 = CARTESIAN_POINT ( 'NONE',  ( -2.383624578688312567, -7.111905376778240750, 1.382978690573019698 ) ) ;
#446 = LINE ( 'NONE', #693, #277 ) ;
#447 = CARTESIAN_POINT ( 'NONE',  ( 7.500000000000000000, 0.000000000000000000, -4.700000000000000178 ) ) ;
#448 = EDGE_CURVE ( 'NONE', #581, #194, #446, .T. ) ;
#449 = CYLINDRICAL_SURFACE ( 'NONE', #430, 7.500000000000000000 ) ;
#450 = CARTESIAN_POINT ( 'NONE',  ( 0.000000000000000000, -7.500000000000000000, -2.749999999999999112 ) ) ;
#451 = B_SPLINE_CURVE_WITH_KNOTS ( 'NONE', 3,
 ( #160, #321, #60, #69, #352, #600, #550, #40, #376, #199, #96, #142, #369, #252, #428, #316, #256, #671, #145, #743, #658, #681, #459, #293, #598, #538, #161, #627 ),
 .UNSPECIFIED., .F., .F.,
 ( 4, 2, 2, 2, 2, 2, 2, 2, 2, 2, 2, 2, 2, 4 ),
 ( 0.000000000000000000, 0.0003397931746331385883, 0.0006795863492662771767, 0.001359172698532554353, 0.002038759047798831530, 0.002378552222431970335, 0.002718345397065108707, 0.003058138571698247078, 0.003397931746331385883, 0.004077518095597663060, 0.004417311270230801432, 0.004757104444863940670, 0.005096897619497079042, 0.005436690794130217413 ),
 .UNSPECIFIED. ) ;
#452 = AXIS2_PLACEMENT_3D ( 'NONE', #632, #105, #331 ) ;
#453 = CARTESIAN_POINT ( 'NONE',  ( -0.8915736142798862396, -7.448692648764315472, 2.607625791866825971 ) ) ;
#454 = AXIS2_PLACEMENT_3D ( 'NONE', #631, #103, #109 ) ;
#455 = PRESENTATION_LAYER_ASSIGNMENT (  '', '', ( #656 ) ) ;
#456 = FACE_OUTER_BOUND ( 'NONE', #541, .T. ) ;
#457 = DIRECTION ( 'NONE',  ( -0.000000000000000000, -0.000000000000000000, -1.000000000000000000 ) ) ;
#458 = ORIENTED_EDGE ( 'NONE', *, *, #21, .T. ) ;
#459 = CARTESIAN_POINT ( 'NONE',  ( -0.7628388034459403499, 2.903304942523065257, -1.523324509754125256 ) ) ;
#460 = CYLINDRICAL_SURFACE ( 'NONE', #700, 1.700000000000005063 ) ;
#461 = CARTESIAN_POINT ( 'NONE',  ( -0.2144226724265960726, 7.500000000000003553, -3.249999999999997335 ) ) ;
#462 = ORIENTED_EDGE ( 'NONE', *, *, #697, .T. ) ;
#463 = DIRECTION ( 'NONE',  ( -0.000000000000000000, 1.000000000000000000, -0.000000000000000000 ) ) ;
#464 = EDGE_LOOP ( 'NONE', ( #232, #462, #710, #51 ) ) ;
#465 = FACE_OUTER_BOUND ( 'NONE', #500, .T. ) ;
#466 = ORIENTED_EDGE ( 'NONE', *, *, #181, .F. ) ;
#467 = DIRECTION ( 'NONE',  ( -0.000000000000000000, 1.000000000000000000, -0.000000000000000000 ) ) ;
#468 = CARTESIAN_POINT ( 'NONE',  ( 0.3632996091018720342, -7.493281620403065446, -2.731822270034194311 ) ) ;
#469 = CARTESIAN_POINT ( 'NONE',  ( 3.980051605175460181E-16, 7.500000000000000000, -3.249999999999996003 ) ) ;
#470 = CARTESIAN_POINT ( 'NONE',  ( 0.9586390508877509209, -2.848551676900722196, -2.584147731570652695 ) ) ;
#471 = CARTESIAN_POINT ( 'NONE',  ( 0.000000000000000000, 7.500000000000000000, 3.249999999999996003 ) ) ;
#472 = CARTESIAN_POINT ( 'NONE',  ( 0.8905528888653516661, -7.448846392051788001, -2.608079154175444447 ) ) ;
#473 = CARTESIAN_POINT ( 'NONE',  ( 1.700000000000012168, 4.099999999999999645, 0.000000000000000000 ) ) ;
#474 = CARTESIAN_POINT ( 'NONE',  ( -3.144000389573697429, 6.809364345966009147, 0.8507640793877465635 ) ) ;
#475 = VERTEX_POINT ( 'NONE', #580 ) ;
#476 = EDGE_LOOP ( 'NONE', ( #275, #687 ) ) ;
#477 = DIRECTION ( 'NONE',  ( -1.000000000000000000, 0.000000000000000000, 0.000000000000000000 ) ) ;
#478 = CARTESIAN_POINT ( 'NONE',  ( 2.183337114962037973, -7.175935521757689450, -1.681577683257852174 ) ) ;
#479 = CARTESIAN_POINT ( 'NONE',  ( 2.449309641187467079, 7.090513176149352503, -2.146590404848649936 ) ) ;
#480 = CARTESIAN_POINT ( 'NONE',  ( 2.750322234545528488, -1.198218812575614356, 0.08945946294330210657 ) ) ;
#481 = CARTESIAN_POINT ( 'NONE',  ( 2.660665166192417441, -7.012298284746503185, -0.7186350666937608711 ) ) ;
#482 = VECTOR ( 'NONE', #231, 1000.000000000000000 ) ;
#483 = CARTESIAN_POINT ( 'NONE',  ( 3.228073419090027762, 6.769914212215317306, -0.4335341365700722260 ) ) ;
#484 = VECTOR ( 'NONE', #585, 1000.000000000000000 ) ;
#485 = DIRECTION ( 'NONE',  ( -0.000000000000000000, -0.000000000000000000, 1.000000000000000000 ) ) ;
#486 = CARTESIAN_POINT ( 'NONE',  ( 0.000000000000000000, 0.000000000000000000, -5.000000000000000000 ) ) ;
#487 = ORIENTED_EDGE ( 'NONE', *, *, #348, .T. ) ;
#488 = FILL_AREA_STYLE ('',( #299 ) ) ;
#489 = CARTESIAN_POINT ( 'NONE',  ( 1.481876988495076874, 2.610388890747160406, 0.8619807963955028463 ) ) ;
#490 = CARTESIAN_POINT ( 'NONE',  ( 0.000000000000000000, -3.000000000000000444, -2.749999999999999112 ) ) ;
#491 = EDGE_LOOP ( 'NONE', ( #125, #100 ) ) ;
#492 = CARTESIAN_POINT ( 'NONE',  ( 1.649132689344234182, 7.327415278042991531, 2.833079130940048707 ) ) ;
#493 = VECTOR ( 'NONE', #467, 1000.000000000000000 ) ;
#494 = EDGE_LOOP ( 'NONE', ( #623, #228, #92, #280 ) ) ;
#495 = FACE_BOUND ( 'NONE', #415, .T. ) ;
#496 = DIRECTION ( 'NONE',  ( -0.000000000000000000, 1.000000000000000000, -0.000000000000000000 ) ) ;
#497 = CARTESIAN_POINT ( 'NONE',  ( -2.390850940744670972, -1.817625722025359325, -1.368823818123552138 ) ) ;
#498 = EDGE_LOOP ( 'NONE', ( #746, #304, #735, #345 ) ) ;
#499 = CARTESIAN_POINT ( 'NONE',  ( 0.2174373089415258808, 7.500000000000000000, 3.249999999999996447 ) ) ;
#500 = EDGE_LOOP ( 'NONE', ( #110, #18, #646, #17 ) ) ;
#501 = CARTESIAN_POINT ( 'NONE',  ( -1.819972654834756565, -7.276992101310888472, -2.069247599413928995 ) ) ;
#502 = CARTESIAN_POINT ( 'NONE',  ( -2.595422098881091433, -1.509569294882910917, 0.9243830018698725448 ) ) ;
#503 = ORIENTED_EDGE ( 'NONE', *, *, #263, .F. ) ;
#504 = AXIS2_PLACEMENT_3D ( 'NONE', #130, #485, #670 ) ;
#505 = FACE_OUTER_BOUND ( 'NONE', #641, .T. ) ;
#506 = CARTESIAN_POINT ( 'NONE',  ( 1.296516558136700636, -2.711508860457262138, -2.432252688958546294 ) ) ;
#507 = CARTESIAN_POINT ( 'NONE',  ( 0.000000000000000000, 0.000000000000000000, 5.000000000000000000 ) ) ;
#508 = EDGE_CURVE ( 'NONE', #340, #318, #329, .T. ) ;
#509 = CARTESIAN_POINT ( 'NONE',  ( -0.4311567200667202338, 7.490551722533976609, 3.228361671228814345 ) ) ;
#510 = CARTESIAN_POINT ( 'NONE',  ( -0.3626772259715956293, -7.493364649595337212, 2.732056288454334236 ) ) ;
#511 = B_SPLINE_CURVE_WITH_KNOTS ( 'NONE', 3,
 ( #32, #253, #420, #98, #432, #545, #736, #559, #501, #388, #5, #332, #747, #626, #396, #107, #755, #324, #568, #112, #445, #336, #629, #692, #102, #638, #326, #453, #56, #510, #696, #701 ),
 .UNSPECIFIED., .F., .F.,
 ( 4, 2, 2, 2, 2, 2, 2, 2, 2, 2, 2, 2, 2, 2, 2, 4 ),
 ( 0.000000000000000000, 0.0005421315219612961832, 0.001084263043922592366, 0.001626394565883888766, 0.002168526087845184733, 0.003252789131767776232, 0.003794920653729072849, 0.004337052175690368598, 0.004879183697651664348, 0.005421315219612960964, 0.005963446741574256714, 0.006505578263535552463, 0.007047709785496849948, 0.007589841307458145697, 0.008131972829419442314, 0.008674104351380737196 ),
 .UNSPECIFIED. ) ;
#512 = CYLINDRICAL_SURFACE ( 'NONE', #563, 7.500000000000000000 ) ;
#513 = ORIENTED_EDGE ( 'NONE', *, *, #115, .F. ) ;
#514 = FACE_BOUND ( 'NONE', #491, .T. ) ;
#515 = ADVANCED_FACE ( 'NONE', ( #57, #456 ), #512, .T. ) ;
#516 = FACE_OUTER_BOUND ( 'NONE', #211, .T. ) ;
#517 = CARTESIAN_POINT ( 'NONE',  ( 2.081899558556276714E-16, 3.000000000000000444, -1.700000000000005063 ) ) ;
#518 = EDGE_CURVE ( 'NONE', #730, #475, #257, .T. ) ;
#519 = AXIS2_PLACEMENT_3D ( 'NONE', #698, #53, #163 ) ;
#520 = AXIS2_PLACEMENT_3D ( 'NONE', #13, #79, #547 ) ;
#521 = CARTESIAN_POINT ( 'NONE',  ( 7.500000000000000000, 9.184850993605147944E-16, -4.700000000000000178 ) ) ;
#522 = CARTESIAN_POINT ( 'NONE',  ( -7.500000000000000000, 0.000000000000000000, 4.699999999999999289 ) ) ;
#523 = ORIENTED_EDGE ( 'NONE', *, *, #411, .T. ) ;
#524 = EDGE_CURVE ( 'NONE', #475, #312, #1, .T. ) ;
#525 = FACE_OUTER_BOUND ( 'NONE', #73, .T. ) ;
#526 = CARTESIAN_POINT ( 'NONE',  ( 7.500000000000000000, 9.184850993605147944E-16, 5.000000000000000000 ) ) ;
#527 = CARTESIAN_POINT ( 'NONE',  ( -1.058289438113787284, 7.427629487926195928, 3.080230587525443209 ) ) ;
#528 = SURFACE_SIDE_STYLE ('',( #195 ) ) ;
#529 = CARTESIAN_POINT ( 'NONE',  ( -3.000000000000000444, 0.000000000000000000, 5.000000000000000000 ) ) ;
#530 = AXIS2_PLACEMENT_3D ( 'NONE', #438, #198, #609 ) ;
#531 = CARTESIAN_POINT ( 'NONE',  ( 1.381438744052106760, -7.373231378166793526, -2.384518028074610108 ) ) ;
#532 = CARTESIAN_POINT ( 'NONE',  ( 0.000000000000000000, 3.000000000000000444, 1.700000000000005063 ) ) ;
#533 = ADVANCED_FACE ( 'NONE', ( #385 ), #42, .T. ) ;
#534 = CARTESIAN_POINT ( 'NONE',  ( 2.391027782302078020, -1.817386155683059057, 1.368504208058349381 ) ) ;
#535 = PRODUCT ( 'BarFixture', 'BarFixture', '', ( #206 ) ) ;
#536 = DIRECTION ( 'NONE',  ( -0.000000000000000000, 1.000000000000000000, -0.000000000000000000 ) ) ;
#537 = CARTESIAN_POINT ( 'NONE',  ( 0.8529019857292718942, 7.454340911459538255, -3.143433249961987919 ) ) ;
#538 = CARTESIAN_POINT ( 'NONE',  ( -0.2276689253053335305, 2.993403722695401559, -1.688433952673301652 ) ) ;
#539 = CARTESIAN_POINT ( 'NONE',  ( 2.725075364111122056, -1.254814348704126781, 0.3817749678737448193 ) ) ;
#540 = DIRECTION ( 'NONE',  ( 0.000000000000000000, 0.000000000000000000, 1.000000000000000000 ) ) ;
#541 = EDGE_LOOP ( 'NONE', ( #308, #607, #427, #466 ) ) ;
#542 = CARTESIAN_POINT ( 'NONE',  ( 3.080915604558637444, 6.838558378713629260, -1.056092457807686458 ) ) ;
#543 = CARTESIAN_POINT ( 'NONE',  ( 1.299231781739921043, -2.710237258387227843, 2.430837158430120493 ) ) ;
#544 = ADVANCED_FACE ( 'NONE', ( #516, #752 ), #330, .F. ) ;
#545 = CARTESIAN_POINT ( 'NONE',  ( -1.225212664181068778, -7.401151494523428909, -2.468560667161554534 ) ) ;
#546 = ORIENTED_EDGE ( 'NONE', *, *, #644, .F. ) ;
#547 = DIRECTION ( 'NONE',  ( 0.000000000000000000, 0.000000000000000000, -1.000000000000000000 ) ) ;
#548 = AXIS2_PLACEMENT_3D ( 'NONE', #486, #233, #706 ) ;
#549 = CARTESIAN_POINT ( 'NONE',  ( 2.917946337430730619, 6.909669140530208864, 1.446755482035330997 ) ) ;
#550 = CARTESIAN_POINT ( 'NONE',  ( -1.050680162392927830, 2.814964694820281998, 1.353925835338972705 ) ) ;
#551 = CARTESIAN_POINT ( 'NONE',  ( 1.872436183308659574, -2.349092454416705777, 2.021134553346524587 ) ) ;
#552 =( NAMED_UNIT ( * ) PLANE_ANGLE_UNIT ( ) SI_UNIT ( $, .RADIAN. ) );
#553 = CARTESIAN_POINT ( 'NONE',  ( 0.2296230153920167105, 2.999999999999999556, 1.700000000000004841 ) ) ;
#554 = ORIENTED_EDGE ( 'NONE', *, *, #722, .F. ) ;
#555 = CARTESIAN_POINT ( 'NONE',  ( 2.105603155309842656, -2.142589081534355344, 1.776917976622440998 ) ) ;
#556 = VERTEX_POINT ( 'NONE', #751 ) ;
#557 =( LENGTH_UNIT ( ) NAMED_UNIT ( * ) SI_UNIT ( .MILLI., .METRE. ) );
#558 = CARTESIAN_POINT ( 'NONE',  ( -0.1984040057549109892, -3.000000000000009326, 2.750000000000008438 ) ) ;
#559 = CARTESIAN_POINT ( 'NONE',  ( -1.680381480440443553, -7.310913078694043499, -2.184250798526869541 ) ) ;
#560 = FACE_OUTER_BOUND ( 'NONE', #476, .T. ) ;
#561 = CARTESIAN_POINT ( 'NONE',  ( -0.2005684795433645418, -3.000000000000000888, -2.749999999999999556 ) ) ;
#562 = CIRCLE ( 'NONE', #750, 3.000000000000000444 ) ;
#563 = AXIS2_PLACEMENT_3D ( 'NONE', #279, #229, #218 ) ;
#564 = AXIS2_PLACEMENT_3D ( 'NONE', #596, #536, #240 ) ;
#565 = CARTESIAN_POINT ( 'NONE',  ( -2.649576985031200316, -1.409686383641203467, 0.7584750603352665710 ) ) ;
#566 = CARTESIAN_POINT ( 'NONE',  ( -2.745148144695473302, -1.210271035190264799, -0.1896416709469569417 ) ) ;
#567 = VERTEX_POINT ( 'NONE', #703 ) ;
#568 = CARTESIAN_POINT ( 'NONE',  ( -2.608281848165715733, -7.032237588206165846, 0.8901068741425175457 ) ) ;
#569 = CARTESIAN_POINT ( 'NONE',  ( 1.739582018720128520, -2.449913322315035114, -2.137023773210420252 ) ) ;
#570 = CYLINDRICAL_SURFACE ( 'NONE', #151, 3.000000000000000444 ) ;
#571 = AXIS2_PLACEMENT_3D ( 'NONE', #393, #64, #262 ) ;
#572 = AXIS2_PLACEMENT_3D ( 'NONE', #158, #273, #711 ) ;
#573 = DIRECTION ( 'NONE',  ( -0.000000000000000000, 1.000000000000000000, -0.000000000000000000 ) ) ;
#574 = CARTESIAN_POINT ( 'NONE',  ( -2.581481988316125964, 7.042850833339624472, -1.985634693320068811 ) ) ;
#575 = CARTESIAN_POINT ( 'NONE',  ( 2.726447520185448337, -1.254566311839004467, -0.4024891286148787328 ) ) ;
#576 = CARTESIAN_POINT ( 'NONE',  ( 0.3972624288034348750, -2.979872726904402302, 2.728081221344063056 ) ) ;
#577 = DIRECTION ( 'NONE',  ( -0.000000000000000000, -1.000000000000000000, -0.000000000000000000 ) ) ;
#578 = DIRECTION ( 'NONE',  ( 1.000000000000000000, 0.000000000000000000, 0.000000000000000000 ) ) ;
#579 = EDGE_CURVE ( 'NONE', #173, #620, #270, .T. ) ;
#580 = CARTESIAN_POINT ( 'NONE',  ( 7.199999999999994849, 9.001153973733039700E-16, 5.000000000000000000 ) ) ;
#581 = VERTEX_POINT ( 'NONE', #113 ) ;
#582 = DIRECTION ( 'NONE',  ( -0.000000000000000000, -0.000000000000000000, -1.000000000000000000 ) ) ;
#583 = CIRCLE ( 'NONE', #452, 1.700000000000012168 ) ;
#584 = CIRCLE ( 'NONE', #245, 7.500000000000000000 ) ;
#585 = DIRECTION ( 'NONE',  ( -0.000000000000000000, 1.000000000000000000, -0.000000000000000000 ) ) ;
#586 = CARTESIAN_POINT ( 'NONE',  ( -1.447396884958024987, 7.361674195813756150, -2.917584250038012250 ) ) ;
#587 = ORIENTED_EDGE ( 'NONE', *, *, #357, .F. ) ;
#588 = CARTESIAN_POINT ( 'NONE',  ( 0.3631724693172858065, -7.493334401616853491, 2.731972908409329381 ) ) ;
#589 = CARTESIAN_POINT ( 'NONE',  ( 3.980102097228892808E-16, 4.099999999999999645, -3.249999999999996003 ) ) ;
#590 = CARTESIAN_POINT ( 'NONE',  ( -2.151996849009227386, 7.186309463932588848, 2.444423533688149686 ) ) ;
#591 = ADVANCED_FACE ( 'NONE', ( #171, #225 ), #449, .T. ) ;
#592 = CARTESIAN_POINT ( 'NONE',  ( 3.366455279232050161E-16, -7.500000000000000000, 2.749999999999999112 ) ) ;
#593 = CARTESIAN_POINT ( 'NONE',  ( 1.688676090131560725, 2.479737011745349662, 0.2260762797776967870 ) ) ;
#594 = CARTESIAN_POINT ( 'NONE',  ( 0.000000000000000000, -7.500000000000000000, -2.749999999999999112 ) ) ;
#595 = DIRECTION ( 'NONE',  ( 0.000000000000000000, -1.000000000000000000, 0.000000000000000000 ) ) ;
#596 = CARTESIAN_POINT ( 'NONE',  ( 0.000000000000000000, 7.500000000000000000, 0.000000000000000000 ) ) ;
#597 = CARTESIAN_POINT ( 'NONE',  ( 1.610343724797146825, 2.531662592151313618, 0.5559097621043631587 ) ) ;
#598 = CARTESIAN_POINT ( 'NONE',  ( -0.4480594101180224165, 2.968424119225731239, -1.643741195290293833 ) ) ;
#599 = ADVANCED_FACE ( 'NONE', ( #276 ), #120, .F. ) ;
#600 = CARTESIAN_POINT ( 'NONE',  ( -0.8657491823415632837, 2.880057091363433130, 1.479888851661453009 ) ) ;
#601 = CARTESIAN_POINT ( 'NONE',  ( 1.384673270178725657, -7.372624594967401634, 2.382652475751818155 ) ) ;
#602 = CARTESIAN_POINT ( 'NONE',  ( 3.143936591391244484, 6.809396069236271387, 0.8514816003107261722 ) ) ;
#603 = CARTESIAN_POINT ( 'NONE',  ( 0.000000000000000000, 7.500000000000000000, 3.249999999999996003 ) ) ;
#604 =( LENGTH_UNIT ( ) NAMED_UNIT ( * ) SI_UNIT ( .MILLI., .METRE. ) );
#605 = VECTOR ( 'NONE', #457, 1000.000000000000000 ) ;
#606 = CARTESIAN_POINT ( 'NONE',  ( 2.816087812286144576, 6.952368489828508302, 1.635970773061330874 ) ) ;
#607 = ORIENTED_EDGE ( 'NONE', *, *, #200, .T. ) ;
#608 = DIRECTION ( 'NONE',  ( 0.000000000000000000, 0.000000000000000000, 1.000000000000000000 ) ) ;
#609 = DIRECTION ( 'NONE',  ( 0.000000000000000000, 0.000000000000000000, 1.000000000000000000 ) ) ;
#610 = APPLICATION_CONTEXT ( 'automotive_design' ) ;
#611 = VERTEX_POINT ( 'NONE', #521 ) ;
#612 = EDGE_LOOP ( 'NONE', ( #740, #487 ) ) ;
#613 = CARTESIAN_POINT ( 'NONE',  ( 0.000000000000000000, 0.000000000000000000, 0.000000000000000000 ) ) ;
#614 = CARTESIAN_POINT ( 'NONE',  ( -2.710294375441228532, -1.286911300775405387, -0.4746568767286078461 ) ) ;
#615 = CARTESIAN_POINT ( 'NONE',  ( -2.447731425961456875, 7.091032718575863036, 2.148233627088726116 ) ) ;
#616 = ORIENTED_EDGE ( 'NONE', *, *, #146, .F. ) ;
#617 = CARTESIAN_POINT ( 'NONE',  ( 0.000000000000000000, 7.500000000000000000, 3.249999999999996003 ) ) ;
#618 = CIRCLE ( 'NONE', #548, 3.000000000000000444 ) ;
#619 = B_SPLINE_CURVE_WITH_KNOTS ( 'NONE', 3,
 ( #469, #721, #652, #537, #138, #361, #663, #25, #297, #479, #189, #413, #367, #542, #243, #483, #729, #660, #365, #602, #300, #549, #606, #86, #208, #144, #492, #43, #258, #93, #499, #617 ),
 .UNSPECIFIED., .F., .F.,
 ( 4, 2, 2, 2, 2, 2, 2, 2, 2, 2, 2, 2, 2, 2, 2, 4 ),
 ( 0.01029018018187849610, 0.01093269455510392785, 0.01157520892832935959, 0.01221772330155479133, 0.01286023767478022307, 0.01350275204800565482, 0.01414526642123108482, 0.01478778079445651830, 0.01543029516768194831, 0.01607280954090738179, 0.01671532391413280833, 0.01735783828735824180, 0.01800035266058367181, 0.01928538140703453529, 0.01992789578025996183, 0.02057041015348539531 ),
 .UNSPECIFIED. ) ;
#620 = VERTEX_POINT ( 'NONE', #7 ) ;
#621 = AXIS2_PLACEMENT_3D ( 'NONE', #39, #269, #219 ) ;
#622 = FACE_OUTER_BOUND ( 'NONE', #464, .T. ) ;
#623 = ORIENTED_EDGE ( 'NONE', *, *, #697, .F. ) ;
#624 = B_SPLINE_CURVE_WITH_KNOTS ( 'NONE', 3,
 ( #384, #683, #576, #61, #309, #543, #250, #303, #551, #555, #419, #534, #431, #672, #132, #295, #539, #26, #480, #691, #575, #754, #166, #406, #169, #443, #389, #217, #569, #52, #506, #470, #183, #650, #191, #363 ),
 .UNSPECIFIED., .F., .F.,
 ( 4, 2, 2, 2, 2, 2, 2, 2, 2, 2, 2, 2, 2, 2, 2, 2, 2, 4 ),
 ( 0.009463931113637556042, 0.01005572912071968535, 0.01064752712780181465, 0.01123932513488394222, 0.01183112314196606979, 0.01242292114904820083, 0.01301471915613032840, 0.01360651716321245770, 0.01390241616675352149, 0.01419831517029458701, 0.01479011317737671458, 0.01538191118445884562, 0.01597370919154097318, 0.01656550719862310422, 0.01715730520570523526, 0.01774910321278736283, 0.01834090121986949040, 0.01893269922695162144 ),
 .UNSPECIFIED. ) ;
#625 = ADVANCED_FACE ( 'NONE', ( #525, #402 ), #570, .F. ) ;
#626 = CARTESIAN_POINT ( 'NONE',  ( -2.732071370719214798, -6.984786579189430356, -0.3622039785259288935 ) ) ;
#627 = CARTESIAN_POINT ( 'NONE',  ( 2.081899558556276714E-16, 3.000000000000000444, -1.700000000000005063 ) ) ;
#628 = CARTESIAN_POINT ( 'NONE',  ( -2.105223738772412201, -2.142973349471983813, -1.777382410310716310 ) ) ;
#629 = CARTESIAN_POINT ( 'NONE',  ( -2.070035368643800222, -7.209857231341490369, 1.819150493025156523 ) ) ;
#630 = PRODUCT_DEFINITION_CONTEXT ( 'detailed design', #264, 'design' ) ;
#631 = CARTESIAN_POINT ( 'NONE',  ( 0.000000000000000000, 0.000000000000000000, -4.700000000000000178 ) ) ;
#632 = CARTESIAN_POINT ( 'NONE',  ( 0.000000000000000000, 4.099999999999999645, 0.000000000000000000 ) ) ;
#633 = CONICAL_SURFACE ( 'NONE', #328, 7.500000000000000000, 0.7853981633974541632 ) ;
#634 = CARTESIAN_POINT ( 'NONE',  ( 7.199999999999994849, 8.817456953860934414E-16, 5.000000000000000000 ) ) ;
#635 = CARTESIAN_POINT ( 'NONE',  ( 1.471762544197658285, 2.615082980787581057, -0.8577820880683680871 ) ) ;
#636 = DIRECTION ( 'NONE',  ( -0.000000000000000000, -0.000000000000000000, -1.000000000000000000 ) ) ;
#637 = CARTESIAN_POINT ( 'NONE',  ( 0.000000000000000000, 0.000000000000000000, 5.000000000000000000 ) ) ;
#638 = CARTESIAN_POINT ( 'NONE',  ( -1.383150022348983654, -7.372918565922020662, 2.383567619124142833 ) ) ;
#639 = DIRECTION ( 'NONE',  ( -1.000000000000000000, 0.000000000000000000, 0.000000000000000000 ) ) ;
#640 = CARTESIAN_POINT ( 'NONE',  ( 3.980051605175460181E-16, 7.500000000000000000, -3.249999999999996003 ) ) ;
#641 = EDGE_LOOP ( 'NONE', ( #45, #368, #421, #665 ) ) ;
#642 = CARTESIAN_POINT ( 'NONE',  ( 0.000000000000000000, 0.000000000000000000, -5.000000000000000000 ) ) ;
#643 = CYLINDRICAL_SURFACE ( 'NONE', #244, 3.000000000000000444 ) ;
#644 = EDGE_CURVE ( 'NONE', #567, #54, #116, .T. ) ;
#645 = CARTESIAN_POINT ( 'NONE',  ( -1.636722179633661733, 7.321469573430030131, 2.815747207129154273 ) ) ;
#646 = ORIENTED_EDGE ( 'NONE', *, *, #46, .F. ) ;
#647 = CARTESIAN_POINT ( 'NONE',  ( 2.732130604447640998, -6.984764041904998777, -0.3619914997789827060 ) ) ;
#648 = CARTESIAN_POINT ( 'NONE',  ( 1.357771230541270135, 2.680407605539401494, 1.045855255813018081 ) ) ;
#649 = VERTEX_POINT ( 'NONE', #409 ) ;
#650 = CARTESIAN_POINT ( 'NONE',  ( 0.3954432496745411418, -2.980186950801691381, -2.728424909067918680 ) ) ;
#651 = CARTESIAN_POINT ( 'NONE',  ( 0.000000000000000000, 0.000000000000000000, 4.699999999999999289 ) ) ;
#652 = CARTESIAN_POINT ( 'NONE',  ( 0.4318902386793281867, 7.490534763503460702, -3.228325450750130887 ) ) ;
#653 = CIRCLE ( 'NONE', #504, 7.500000000000000000 ) ;
#654 = CARTESIAN_POINT ( 'NONE',  ( 1.681026843140571048, -7.310749772499843147, 2.183689913425108653 ) ) ;
#655 = EDGE_CURVE ( 'NONE', #312, #204, #584, .T. ) ;
#656 = STYLED_ITEM ( 'NONE', ( #89 ), #733 ) ;
#657 = CARTESIAN_POINT ( 'NONE',  ( -3.000000000000000444, 0.000000000000000000, 5.000000000000000000 ) ) ;
#658 = CARTESIAN_POINT ( 'NONE',  ( -1.040622177681171046, 2.815358659668772745, -1.348725767008577714 ) ) ;
#659 = CARTESIAN_POINT ( 'NONE',  ( -7.199999999999994849, 0.000000000000000000, 5.000000000000000000 ) ) ;
#660 = CARTESIAN_POINT ( 'NONE',  ( 3.250084005623363748, 6.759212525518906389, 0.2130339885494056118 ) ) ;
#661 = ORIENTED_EDGE ( 'NONE', *, *, #255, .T. ) ;
#662 = CARTESIAN_POINT ( 'NONE',  ( 3.000000000000000444, 3.673940397442060361E-16, -5.000000000000000000 ) ) ;
#663 = CARTESIAN_POINT ( 'NONE',  ( 1.638757324778710167, 7.320984287876277641, -2.814459358114486776 ) ) ;
#664 = VERTEX_POINT ( 'NONE', #716 ) ;
#665 = ORIENTED_EDGE ( 'NONE', *, *, #283, .F. ) ;
#666 = ORIENTED_EDGE ( 'NONE', *, *, #686, .T. ) ;
#667 = VECTOR ( 'NONE', #63, 1000.000000000000000 ) ;
#668 = CARTESIAN_POINT ( 'NONE',  ( -2.385654306001187663, -1.824447086053268663, 1.377829019544375866 ) ) ;
#669 = ORIENTED_EDGE ( 'NONE', *, *, #518, .F. ) ;
#670 = DIRECTION ( 'NONE',  ( 1.000000000000000000, 0.000000000000000000, 0.000000000000000000 ) ) ;
#671 = CARTESIAN_POINT ( 'NONE',  ( -1.481091387754709610, 2.610844971267758385, -0.8633755158931160079 ) ) ;
#672 = CARTESIAN_POINT ( 'NONE',  ( 2.600302257324580424, -1.501173052255976081, 0.9108367176326653825 ) ) ;
#673 = ADVANCED_FACE ( 'NONE', ( #422 ), #731, .F. ) ;
#674 = EDGE_LOOP ( 'NONE', ( #407, #150, #104, #260 ) ) ;
#675 =( NAMED_UNIT ( * ) PLANE_ANGLE_UNIT ( ) SI_UNIT ( $, .RADIAN. ) );
#676 = CARTESIAN_POINT ( 'NONE',  ( -0.3928351358189898779, -2.980514352108353915, 2.728781839691026168 ) ) ;
#677 = DIRECTION ( 'NONE',  ( 1.000000000000000000, 0.000000000000000000, 0.000000000000000000 ) ) ;
#678 = DIRECTION ( 'NONE',  ( -0.000000000000000000, 1.000000000000000000, -0.000000000000000000 ) ) ;
#679 = CARTESIAN_POINT ( 'NONE',  ( -2.581807997323415815, 7.042745181043180480, 1.985366654868378822 ) ) ;
#680 = ORIENTED_EDGE ( 'NONE', *, *, #524, .F. ) ;
#681 = CARTESIAN_POINT ( 'NONE',  ( -0.8592652998047554114, 2.875900214507674857, -1.470924490185074873 ) ) ;
#682 = DIRECTION ( 'NONE',  ( 1.000000000000000000, 0.000000000000000000, 0.000000000000000000 ) ) ;
#683 = CARTESIAN_POINT ( 'NONE',  ( 0.1985054097169835774, -3.000000000000008882, 2.750000000000008882 ) ) ;
#684 = CARTESIAN_POINT ( 'NONE',  ( -1.871772648348637880, -2.349631656181876860, -2.021762195627059722 ) ) ;
#685 = AXIS2_PLACEMENT_3D ( 'NONE', #180, #717, #196 ) ;
#686 = EDGE_CURVE ( 'NONE', #182, #194, #207, .T. ) ;
#687 = ORIENTED_EDGE ( 'NONE', *, *, #148, .T. ) ;
#688 = AXIS2_PLACEMENT_3D ( 'NONE', #613, #41, #677 ) ;
#689 = DIRECTION ( 'NONE',  ( 1.000000000000000000, 0.000000000000000000, 0.000000000000000000 ) ) ;
#690 = ORIENTED_EDGE ( 'NONE', *, *, #644, .T. ) ;
#691 = CARTESIAN_POINT ( 'NONE',  ( 2.749307226395768300, -1.200546809362506906, -0.2071505063244512834 ) ) ;
#692 = CARTESIAN_POINT ( 'NONE',  ( -1.817528348327781984, -7.277614885852942805, 2.071459786415084547 ) ) ;
#693 = CARTESIAN_POINT ( 'NONE',  ( 0.000000000000000000, -7.500000000000000000, -2.749999999999999112 ) ) ;
#694 = EDGE_LOOP ( 'NONE', ( #437, #714, #366, #383 ) ) ;
#695 = LINE ( 'NONE', #177, #667 ) ;
#696 = CARTESIAN_POINT ( 'NONE',  ( -0.1806618976098988971, -7.499999999999999112, 2.749999999999998668 ) ) ;
#697 = EDGE_CURVE ( 'NONE', #216, #715, #412, .T. ) ;
#698 = CARTESIAN_POINT ( 'NONE',  ( 0.000000000000000000, -7.500000000000000000, 0.000000000000000000 ) ) ;
#699 = CARTESIAN_POINT ( 'NONE',  ( 1.280206010793077054, 2.714417295370297190, -1.123757240830306481 ) ) ;
#700 = AXIS2_PLACEMENT_3D ( 'NONE', #338, #463, #176 ) ;
#701 = CARTESIAN_POINT ( 'NONE',  ( 3.366455279232050161E-16, -7.500000000000000000, 2.749999999999999112 ) ) ;
#702 = AXIS2_PLACEMENT_3D ( 'NONE', #373, #325, #35 ) ;
#703 = CARTESIAN_POINT ( 'NONE',  ( 0.000000000000000000, 4.099999999999999645, 3.249999999999996003 ) ) ;
#704 = CARTESIAN_POINT ( 'NONE',  ( 3.366455279232050161E-16, -7.500000000000000000, 2.749999999999999112 ) ) ;
#705 = ORIENTED_EDGE ( 'NONE', *, *, #283, .T. ) ;
#706 = DIRECTION ( 'NONE',  ( 1.000000000000000000, 0.000000000000000000, 0.000000000000000000 ) ) ;
#707 = DIRECTION ( 'NONE',  ( 0.7071067811865526798, 8.659560562354994488E-17, -0.7071067811865423547 ) ) ;
#708 = VERTEX_POINT ( 'NONE', #662 ) ;
#709 = CARTESIAN_POINT ( 'NONE',  ( -2.816017325420886674, 6.952398401961918495, -1.636105379933169512 ) ) ;
#710 = ORIENTED_EDGE ( 'NONE', *, *, #126, .F. ) ;
#711 = DIRECTION ( 'NONE',  ( 1.000000000000000000, 0.000000000000000000, 0.000000000000000000 ) ) ;
#712 = CARTESIAN_POINT ( 'NONE',  ( -2.149114571531123730, 7.187182073824470052, -2.446994924713675079 ) ) ;
#713 = CARTESIAN_POINT ( 'NONE',  ( -3.081316517218134710, 6.838391411327248370, -1.055378940727978110 ) ) ;
#714 = ORIENTED_EDGE ( 'NONE', *, *, #34, .T. ) ;
#715 = VERTEX_POINT ( 'NONE', #179 ) ;
#716 = CARTESIAN_POINT ( 'NONE',  ( 7.199999999999996625, 0.000000000000000000, -5.000000000000000000 ) ) ;
#717 = DIRECTION ( 'NONE',  ( 0.000000000000000000, 0.000000000000000000, 1.000000000000000000 ) ) ;
#718 = ADVANCED_FACE ( 'NONE', ( #134 ), #416, .F. ) ;
#719 = LINE ( 'NONE', #184, #493 ) ;
#720 = CARTESIAN_POINT ( 'NONE',  ( -7.500000000000000000, 9.184850993605147944E-16, -4.700000000000000178 ) ) ;
#721 = CARTESIAN_POINT ( 'NONE',  ( 0.2142153339116313060, 7.500000000000000888, -3.249999999999997335 ) ) ;
#722 = EDGE_CURVE ( 'NONE', #567, #175, #319, .T. ) ;
#723 = CARTESIAN_POINT ( 'NONE',  ( 2.607158690223336794, -7.032645606136917138, -0.8929632025354627967 ) ) ;
#724 = DIRECTION ( 'NONE',  ( -0.000000000000000000, -1.000000000000000000, -0.000000000000000000 ) ) ;
#725 = CONICAL_SURFACE ( 'NONE', #78, 7.199999999999994849, 0.7853981633974554954 ) ;
#726 = CARTESIAN_POINT ( 'NONE',  ( 2.469109004912051653, -7.082293511242396811, -1.223993643346104054 ) ) ;
#727 = VECTOR ( 'NONE', #707, 1000.000000000000000 ) ;
#728 = AXIS2_PLACEMENT_3D ( 'NONE', #81, #360, #540 ) ;
#729 = CARTESIAN_POINT ( 'NONE',  ( 3.249915492032525943, 6.759293550615143253, -0.2155894675837869978 ) ) ;
#730 = VERTEX_POINT ( 'NONE', #659 ) ;
#731 = CYLINDRICAL_SURFACE ( 'NONE', #520, 2.749999999999999112 ) ;
#732 = CARTESIAN_POINT ( 'NONE',  ( 0.000000000000000000, 7.500000000000000000, 0.000000000000000000 ) ) ;
#733 = MANIFOLD_SOLID_BREP ( 'Chamfer1', #143 ) ;
#734 = CARTESIAN_POINT ( 'NONE',  ( 3.980102097228892808E-16, 7.500000000000000000, -3.249999999999996003 ) ) ;
#735 = ORIENTED_EDGE ( 'NONE', *, *, #181, .T. ) ;
#736 = CARTESIAN_POINT ( 'NONE',  ( -1.382606914520114527, -7.373027199458035419, -2.383910986298283241 ) ) ;
#737 = CARTESIAN_POINT ( 'NONE',  ( -2.916243722785540893, 6.910400214394929463, -1.450468454371668381 ) ) ;
#738 = CARTESIAN_POINT ( 'NONE',  ( -2.726359169906849456, -1.254766741866901958, 0.4031231740082080739 ) ) ;
#739 = ADVANCED_FACE ( 'NONE', ( #560, #495 ), #364, .T. ) ;
#740 = ORIENTED_EDGE ( 'NONE', *, *, #139, .T. ) ;
#741 = CARTESIAN_POINT ( 'NONE',  ( -2.750339061041240818, -1.198180223160315361, -0.08891933556624963264 ) ) ;
#742 = ORIENTED_EDGE ( 'NONE', *, *, #46, .T. ) ;
#743 = CARTESIAN_POINT ( 'NONE',  ( -1.126106045250108156, 2.781891436554976949, -1.278166459330770666 ) ) ;
#744 = DIRECTION ( 'NONE',  ( 0.000000000000000000, 0.000000000000000000, 1.000000000000000000 ) ) ;
#745 = CARTESIAN_POINT ( 'NONE',  ( -2.203668417961335724, -2.040538934014748396, 1.653361659928160643 ) ) ;
#746 = ORIENTED_EDGE ( 'NONE', *, *, #200, .F. ) ;
#747 = CARTESIAN_POINT ( 'NONE',  ( -2.660821603467943053, -7.012238296439062601, -0.7179373867419518440 ) ) ;
#748 = CARTESIAN_POINT ( 'NONE',  ( 0.000000000000000000, 0.000000000000000000, 5.000000000000000000 ) ) ;
#749 = CARTESIAN_POINT ( 'NONE',  ( -1.866444178905302342, -2.353799037152259910, 2.026577541576996211 ) ) ;
#750 = AXIS2_PLACEMENT_3D ( 'NONE', #748, #441, #682 ) ;
#751 = CARTESIAN_POINT ( 'NONE',  ( 2.081899558556276714E-16, 3.000000000000000444, -1.700000000000005063 ) ) ;
#752 = FACE_BOUND ( 'NONE', #87, .T. ) ;
#753 = CARTESIAN_POINT ( 'NONE',  ( -3.000000000000000444, 0.000000000000000000, -5.000000000000000000 ) ) ;
#754 = CARTESIAN_POINT ( 'NONE',  ( 2.649791860315107161, -1.409274922836031729, -0.7577048739359839580 ) ) ;
#755 = CARTESIAN_POINT ( 'NONE',  ( -2.731820560598460901, -6.984884026886178710, 0.3636937321202652340 ) ) ;
ENDSEC;
END-ISO-10303-21;
